<?xml version="1.0" encoding="UTF-8"?>
<svg width="200" height="200" version="1.1" viewBox="0 0 52.917 52.917" xmlns="http://www.w3.org/2000/svg">
<g transform="translate(-36.521 -118.32)">
<g transform="translate(6.1981 1.2795)">
<g transform="matrix(.19826 0 0 .18146 3.0068 87.477)" fill="none" stroke="#009dda">
<g transform="matrix(1.1788 0 0 1.1029 -32.595 -48.716)" stroke-width="1.2235" style="font-feature-settings:normal;font-variant-caps:normal;font-variant-ligatures:normal;font-variant-numeric:normal" aria-label="G">
<path d="m299.18 219.75c-7.102 0.89954-10.613 2.3473-13.73 5.9624-4.2957 4.2957-5.9385 9.47-5.9385 15.523v34.415c0 6.053 2.1478 11.247 6.4435 15.582 4.2957 4.2957 9.4895 6.4435 15.582 6.4435 6.053 0 11.465-1.8934 15.761-6.1891 4.3347-4.3347 6.264-9.783 6.264-15.836h-22.025v-20.326h42.293v20.326c0 7.6541-1.894 14.742-5.682 21.264-3.749 6.4826-8.8842 11.618-15.406 15.406-6.4826 3.788-11.699 5.682-19.353 5.682m-5.723-6.6566-0.2142 6.6225c-8.302 0.0341-12.172-1.6137-18.188-5.1082-6.4826-3.788-10.608-9.463-14.396-15.946-3.788-6.5216-5.682-13.609-5.682-21.264v-34.415c0-7.6541 1.894-14.722 5.682-21.205 3.788-6.5216 8.9233-11.676 15.406-15.464 6.5216-3.788 13.609-5.682 21.264-5.682s14.722 1.894 21.205 5.682c6.5216 3.788 11.657 8.9428 15.406 15.464 3.788 6.4826 5.682 13.551 5.682 21.205h-20.268c0-6.053-1.2152-11.736-5.5499-16.032-3.8073-3.8419-9.1799-5.0194-13.134-5.5751l-0.17198-6.4205" fill="none" stroke="#009dda" stroke-width="1.2235" style="font-feature-settings:normal;font-variant-caps:normal;font-variant-ligatures:normal;font-variant-numeric:normal"/>
</g>
<g stroke-width="1.395">
<path d="m364.61 209.71c-2.8543 0.0787-8.7156 0.21708-8.7156 0.21708-1.1917-6.2199-3.7082-12.371-8.378-15.666-6.5804-5.6237-14.787-8.155-24.06-8.155-9.3322 0-17.288 2.8119-23.869 8.4356-6.5804 5.5731-9.8323 14.27-9.8706 22.123m6.9444 7.5397-7.1429-0.0819-0.19841 30.842m-7.1552 9.6923 7.3003-1.5643c0.56075 3.5526 4.6095 11.005 10.519 16.055 6.5804 5.573 13.941 8.3596 23.274 8.3596 9.2724 0 16.604-3.3818 23.184-8.9548 5.8964-4.9938 11.417-16.188 11.388-23.864l-0.0287-7.5508-18.859 0.0884" style="font-feature-settings:normal;font-variant-caps:normal;font-variant-ligatures:normal;font-variant-numeric:normal"/>
<path d="m364.68 210.18c-0.79365-10.206-7.0815-17.119-10.729-19.945m-1.2606-10.385-4.4581 5.4213c-8.5152-5.7851-14.231-7.3673-24.746-7.3673-11.539 0-17.21 3.4264-23.76 7.1047m0 8.9286c-0.62625 0.49242-5.1947-5.3425-5.7692-4.8085-6.89 6.4038-12.357 17.824-12.19 27.73m-0.19841 6.9444-0.70223 23.934-8.0279 0.73658m8.1349 6.746c-0.1298 9.0143 4.862 23.497 12.999 29.953m6.1508 4.5635c9.724 4.4138 11.824 5.0334 23.363 5.0334 10.318 0 18.24-3.1026 27.721-9.8994-0.84687-0.89244-3.9962-5.1259-4.8656-6.0466m4.8656 6.0466c6.953-5.9353 13.866-16.242 14.498-28.199 0.29672-5.6152 0.0492-16.869 0.0492-16.869l-34.806 0.34013-0.2676 7.5384" style="font-feature-settings:normal;font-variant-caps:normal;font-variant-ligatures:normal;font-variant-numeric:normal"/>
<path d="m348.81 217.34-7.8878 0.27156c-0.66771-9.2022-3.9869-16.138-17.166-16.401-10.333-0.2064-17.597 6.3823-17.909 16.682v36.478c0 13.101 13.145 16.431 17.958 16.275 12.424 0.73193 16.836-9.2597 16.836-9.2597"/>
</g>
</g>
<g transform="matrix(.19826 0 0 .18263 -38.767 87.03)" stroke="#009dda" stroke-miterlimit="1.5" stroke-width="1.3905">
<path d="m561.48 321.75h17.663v17.8h-17.663zm-17.663 53.401h17.663v17.8h-17.663zm17.663 53.401h17.663v17.8h-17.663zm-52.988-17.8h17.663v17.8h-17.663zm0-17.8h17.663v17.8h-17.663zm0-35.601h17.663v17.8h-17.663zm0-17.8h17.663v17.8h-17.663zm35.325-17.8h17.663v17.8h-17.663zm-17.663 0h17.663v17.8h-17.663zm-17.663 0h17.663v17.8h-17.663zm17.663 53.401h17.663v17.8h-17.663zm-17.663 0h17.663v17.8h-17.663zm35.325 53.401h17.663v17.8h-17.663zm-17.663 0h17.663v17.8h-17.663zm-17.663 0h17.663v17.8h-17.663zm-17.663 0h17.663v17.8h-17.663zm0-17.8h17.663v17.8h-17.663zm0-17.8h17.663v17.8h-17.663zm0-17.8h17.663v17.8h-17.663zm0-17.8h17.663v17.8h-17.663zm0-17.8h17.663v17.8h-17.663zm0-17.8h17.663v17.8h-17.663z" fill="none" stroke="#009dda" stroke-linecap="round" stroke-linejoin="bevel" stroke-miterlimit="1.5" stroke-width="1.3905"/>
</g>
<path d="m48.302 157.73c-0.14281 0-0.27134-0.0426-0.38559-0.12788-0.08569-0.11367-0.12853-0.24155-0.12853-0.38364 0-0.11367 0.04284-0.22733 0.12853-0.341 0.11425-0.11367 0.24278-0.17051 0.38559-0.17051 0.11425 0 0.2285 0.0568 0.34275 0.17051 0.11425 0.11367 0.17138 0.22733 0.17138 0.341 0 0.14209-0.05712 0.26997-0.17138 0.38364-0.11425 0.0852-0.2285 0.12788-0.34275 0.12788zm1.3712-5.4603c-0.14281 0-0.27134-0.0426-0.38559-0.12788-0.08569-0.11367-0.12853-0.24154-0.12853-0.38363 0-0.11367 0.04284-0.22734 0.12853-0.34101 0.11425-0.11367 0.24278-0.1705 0.38559-0.1705 0.11425 0 0.2285 0.0568 0.34275 0.1705 0.11425 0.11367 0.17137 0.22734 0.17137 0.34101 0 0.14209-0.05712 0.26996-0.17137 0.38363-0.11425 0.0853-0.2285 0.12788-0.34275 0.12788zm0 1.364c-0.14281 0-0.27134-0.0426-0.38559-0.12788-0.08569-0.11367-0.12853-0.24155-0.12853-0.38364 0-0.11367 0.04284-0.22733 0.12853-0.341 0.11425-0.11367 0.24278-0.17051 0.38559-0.17051 0.11425 0 0.2285 0.0568 0.34275 0.17051 0.11425 0.11367 0.17137 0.22733 0.17137 0.341 0 0.14209-0.05712 0.26997-0.17137 0.38364-0.11425 0.0853-0.2285 0.12788-0.34275 0.12788zm0 1.364c-0.14281 0-0.27134-0.0426-0.38559-0.12788-0.08569-0.11367-0.12853-0.24155-0.12853-0.38364 0-0.11367 0.04284-0.22734 0.12853-0.34101 0.11425-0.11367 0.24278-0.1705 0.38559-0.1705 0.11425 0 0.2285 0.0568 0.34275 0.1705 0.11425 0.11367 0.17137 0.22734 0.17137 0.34101 0 0.14209-0.05712 0.26997-0.17137 0.38364-0.11425 0.0853-0.2285 0.12788-0.34275 0.12788zm0 1.364c-0.14281 0-0.27134-0.0426-0.38559-0.12788-0.08569-0.11367-0.12853-0.24154-0.12853-0.38363 0-0.11367 0.04284-0.22734 0.12853-0.34101 0.11425-0.11367 0.24278-0.1705 0.38559-0.1705 0.11425 0 0.2285 0.0568 0.34275 0.1705 0.11425 0.11367 0.17137 0.22734 0.17137 0.34101 0 0.14209-0.05712 0.26996-0.17137 0.38363-0.11425 0.0853-0.2285 0.12788-0.34275 0.12788zm0 1.364c-0.14281 0-0.27134-0.0426-0.38559-0.12788-0.08569-0.11367-0.12853-0.24155-0.12853-0.38364 0-0.11367 0.04284-0.22733 0.12853-0.341 0.11425-0.11367 0.24278-0.17051 0.38559-0.17051 0.11425 0 0.2285 0.0568 0.34275 0.17051 0.11425 0.11367 0.17137 0.22733 0.17137 0.341 0 0.14209-0.05712 0.26997-0.17137 0.38364-0.11425 0.0853-0.2285 0.12788-0.34275 0.12788zm-8.2088-5.5286c-0.14281 0-0.27134-0.0426-0.38559-0.12788-0.08569-0.11367-0.12853-0.24154-0.12853-0.38363 0-0.11367 0.04284-0.22734 0.12853-0.34101 0.11425-0.11367 0.24278-0.17051 0.38559-0.17051 0.11425 0 0.2285 0.0568 0.34275 0.17051 0.11425 0.11367 0.17137 0.22734 0.17137 0.34101 0 0.14209-0.05712 0.26996-0.17137 0.38363-0.11425 0.0853-0.2285 0.12788-0.34275 0.12788zm0 1.364c-0.14281 0-0.27134-0.0426-0.38559-0.12788-0.08569-0.11367-0.12853-0.24155-0.12853-0.38364 0-0.11367 0.04284-0.22734 0.12853-0.34101 0.11425-0.11367 0.24278-0.1705 0.38559-0.1705 0.11425 0 0.2285 0.0568 0.34275 0.1705 0.11425 0.11367 0.17137 0.22734 0.17137 0.34101 0 0.14209-0.05712 0.26997-0.17137 0.38364-0.11425 0.0853-0.2285 0.12788-0.34275 0.12788zm0 1.364c-0.14281 0-0.27134-0.0426-0.38559-0.12788-0.08569-0.11367-0.12853-0.24154-0.12853-0.38363 0-0.11367 0.04284-0.22734 0.12853-0.34101 0.11425-0.11367 0.24278-0.1705 0.38559-0.1705 0.11425 0 0.2285 0.0568 0.34275 0.1705 0.11425 0.11367 0.17137 0.22734 0.17137 0.34101 0 0.14209-0.05712 0.26996-0.17137 0.38363-0.11425 0.0853-0.2285 0.12788-0.34275 0.12788zm0 1.364c-0.14281 0-0.27134-0.0426-0.38559-0.12788-0.08569-0.11367-0.12853-0.24154-0.12853-0.38363 0-0.11367 0.04284-0.22734 0.12853-0.34101 0.11425-0.11367 0.24278-0.17051 0.38559-0.17051 0.11425 0 0.2285 0.0568 0.34275 0.17051 0.11425 0.11367 0.17137 0.22734 0.17137 0.34101 0 0.14209-0.05712 0.26996-0.17137 0.38363-0.11425 0.0853-0.2285 0.12788-0.34275 0.12788zm0 1.364c-0.14281 0-0.27134-0.0426-0.38559-0.12788-0.08569-0.11367-0.12853-0.24155-0.12853-0.38364 0-0.11367 0.04284-0.22734 0.12853-0.34101 0.11425-0.11367 0.24278-0.1705 0.38559-0.1705 0.11425 0 0.2285 0.0568 0.34275 0.1705 0.11425 0.11367 0.17137 0.22734 0.17137 0.34101 0 0.14209-0.05712 0.26997-0.17137 0.38364-0.11425 0.0853-0.2285 0.12788-0.34275 0.12788zm0 5.5017c-0.14281 0-0.27134-0.0426-0.38559-0.12788-0.08569-0.11367-0.12853-0.24154-0.12853-0.38363 0-0.11367 0.04284-0.22734 0.12853-0.34101 0.11425-0.11367 0.24278-0.17051 0.38559-0.17051 0.11425 0 0.2285 0.0568 0.34275 0.17051 0.11425 0.11367 0.17137 0.22734 0.17137 0.34101 0 0.14209-0.05712 0.26996-0.17137 0.38363-0.11425 0.0853-0.2285 0.12788-0.34275 0.12788zm0 1.364c-0.14281 0-0.27134-0.0426-0.38559-0.12788-0.08569-0.11367-0.12853-0.24155-0.12853-0.38364 0-0.11367 0.04284-0.22733 0.12853-0.341 0.11425-0.11367 0.24278-0.17051 0.38559-0.17051 0.11425 0 0.2285 0.0568 0.34275 0.17051 0.11425 0.11367 0.17137 0.22733 0.17137 0.341 0 0.14209-0.05712 0.26997-0.17137 0.38364-0.11425 0.0853-0.2285 0.12788-0.34275 0.12788zm0 1.364c-0.14281 0-0.27134-0.0426-0.38559-0.12788-0.08569-0.11367-0.12853-0.24154-0.12853-0.38363 0-0.11367 0.04284-0.22734 0.12853-0.34101 0.11425-0.11367 0.24278-0.1705 0.38559-0.1705 0.11425 0 0.2285 0.0568 0.34275 0.1705 0.11425 0.11367 0.17137 0.22734 0.17137 0.34101 0 0.14209-0.05712 0.26996-0.17137 0.38363-0.11425 0.0853-0.2285 0.12788-0.34275 0.12788zm0 1.364c-0.14281 0-0.27134-0.0426-0.38559-0.12788-0.08569-0.11367-0.12853-0.24154-0.12853-0.38363 0-0.11367 0.04284-0.22734 0.12853-0.34101 0.11425-0.11367 0.24278-0.17051 0.38559-0.17051 0.11425 0 0.2285 0.0568 0.34275 0.17051 0.11425 0.11367 0.17137 0.22734 0.17137 0.34101 0 0.14209-0.05712 0.26996-0.17137 0.38363-0.11425 0.0853-0.2285 0.12788-0.34275 0.12788zm0 1.364c-0.14281 0-0.27134-0.0426-0.38559-0.12788-0.08569-0.11367-0.12853-0.24155-0.12853-0.38364 0-0.11367 0.04284-0.22734 0.12853-0.34101 0.11425-0.11367 0.24278-0.1705 0.38559-0.1705 0.11425 0 0.2285 0.0568 0.34275 0.1705 0.11425 0.11367 0.17137 0.22734 0.17137 0.34101 0 0.14209-0.05712 0.26997-0.17137 0.38364-0.11425 0.0853-0.2285 0.12788-0.34275 0.12788zm8.2201-17.78c-0.14281 0-0.27134-0.0426-0.38559-0.12788-0.08569-0.11367-0.12853-0.24155-0.12853-0.38363 0-0.11367 0.04284-0.22735 0.12853-0.34102 0.11425-0.11367 0.24278-0.1705 0.38559-0.1705 0.11425 0 0.2285 0.0568 0.34275 0.1705 0.11425 0.11367 0.17137 0.22735 0.17137 0.34102 0 0.14208-0.05712 0.26996-0.17137 0.38363-0.11425 0.0853-0.2285 0.12788-0.34275 0.12788zm-1.371 0c-0.14281 0-0.27134-0.0426-0.38559-0.12788-0.08569-0.11367-0.12853-0.24155-0.12853-0.38363 0-0.11367 0.04284-0.22735 0.12853-0.34102 0.11425-0.11367 0.24278-0.1705 0.38559-0.1705 0.11425 0 0.2285 0.0568 0.34275 0.1705 0.11425 0.11367 0.17138 0.22735 0.17138 0.34102 0 0.14208-0.05712 0.26996-0.17138 0.38363-0.11425 0.0853-0.2285 0.12788-0.34275 0.12788zm-6.8549 0c-0.14281 0-0.27134-0.0426-0.38559-0.12788-0.08569-0.11367-0.12853-0.24155-0.12853-0.38363 0-0.11367 0.04284-0.22735 0.12853-0.34102 0.11425-0.11367 0.24278-0.1705 0.38559-0.1705 0.11425 0 0.2285 0.0568 0.34275 0.1705 0.11425 0.11367 0.17137 0.22735 0.17137 0.34102 0 0.14208-0.05712 0.26996-0.17137 0.38363-0.11425 0.0853-0.2285 0.12788-0.34275 0.12788zm9.5576-4.0442c-0.14281 0-0.27134-0.0426-0.38559-0.12788-0.08569-0.11367-0.12853-0.24154-0.12853-0.38363 0-0.11367 0.04284-0.22734 0.12853-0.34101 0.11425-0.11367 0.24278-0.17051 0.38559-0.17051 0.11425 0 0.2285 0.0568 0.34275 0.17051 0.11425 0.11367 0.17137 0.22734 0.17137 0.34101 0 0.14209-0.05712 0.26996-0.17137 0.38363-0.11425 0.0853-0.2285 0.12788-0.34275 0.12788zm-1.371 0c-0.14281 0-0.27134-0.0426-0.38559-0.12788-0.08569-0.11367-0.12853-0.24154-0.12853-0.38363 0-0.11367 0.04284-0.22734 0.12853-0.34101 0.11425-0.11367 0.24278-0.17051 0.38559-0.17051 0.11425 0 0.2285 0.0568 0.34275 0.17051 0.11425 0.11367 0.17137 0.22734 0.17137 0.34101 0 0.14209-0.05712 0.26996-0.17137 0.38363-0.11425 0.0853-0.2285 0.12788-0.34275 0.12788zm-1.371 0c-0.14281 0-0.27134-0.0426-0.38559-0.12788-0.08569-0.11367-0.12853-0.24154-0.12853-0.38363 0-0.11367 0.04284-0.22734 0.12853-0.34101 0.11425-0.11367 0.24278-0.17051 0.38559-0.17051 0.11425 0 0.2285 0.0568 0.34275 0.17051 0.11425 0.11367 0.17138 0.22734 0.17138 0.34101 0 0.14209-0.05713 0.26996-0.17138 0.38363-0.11425 0.0853-0.2285 0.12788-0.34275 0.12788zm-1.371 0c-0.14281 0-0.27134-0.0426-0.38559-0.12788-0.08569-0.11367-0.12853-0.24154-0.12853-0.38363 0-0.11367 0.04284-0.22734 0.12853-0.34101 0.11425-0.11367 0.24278-0.17051 0.38559-0.17051 0.11425 0 0.2285 0.0568 0.34275 0.17051 0.11425 0.11367 0.17137 0.22734 0.17137 0.34101 0 0.14209-0.05712 0.26996-0.17137 0.38363-0.11425 0.0853-0.2285 0.12788-0.34275 0.12788zm-1.371 0c-0.14281 0-0.27134-0.0426-0.38559-0.12788-0.08569-0.11367-0.12853-0.24154-0.12853-0.38363 0-0.11367 0.04284-0.22734 0.12853-0.34101 0.11425-0.11367 0.24278-0.17051 0.38559-0.17051 0.11425 0 0.2285 0.0568 0.34275 0.17051 0.11425 0.11367 0.17138 0.22734 0.17138 0.34101 0 0.14209-0.05712 0.26996-0.17138 0.38363-0.11425 0.0853-0.2285 0.12788-0.34275 0.12788zm-1.371 0c-0.14281 0-0.27134-0.0426-0.38559-0.12788-0.08569-0.11367-0.12853-0.24154-0.12853-0.38363 0-0.11367 0.04284-0.22734 0.12853-0.34101 0.11425-0.11367 0.24278-0.17051 0.38559-0.17051 0.11425 0 0.2285 0.0568 0.34275 0.17051 0.11425 0.11367 0.17137 0.22734 0.17137 0.34101 0 0.14209-0.05712 0.26996-0.17137 0.38363-0.11425 0.0853-0.2285 0.12788-0.34275 0.12788zm-1.371 0c-0.14281 0-0.27134-0.0426-0.38559-0.12788-0.08569-0.11367-0.12853-0.24154-0.12853-0.38363 0-0.11367 0.04284-0.22734 0.12853-0.34101 0.11425-0.11367 0.24278-0.17051 0.38559-0.17051 0.11425 0 0.2285 0.0568 0.34275 0.17051 0.11425 0.11367 0.17137 0.22734 0.17137 0.34101 0 0.14209-0.05712 0.26996-0.17137 0.38363-0.11425 0.0853-0.2285 0.12788-0.34275 0.12788zm-1.371 0c-0.14281 0-0.27134-0.0426-0.38559-0.12788-0.08569-0.11367-0.12853-0.24154-0.12853-0.38363 0-0.11367 0.04284-0.22734 0.12853-0.34101 0.11425-0.11367 0.24278-0.17051 0.38559-0.17051 0.11425 0 0.2285 0.0568 0.34275 0.17051 0.11425 0.11367 0.17137 0.22734 0.17137 0.34101 0 0.14209-0.05712 0.26996-0.17137 0.38363-0.11425 0.0853-0.2285 0.12788-0.34275 0.12788zm-1.371 0c-0.14281 0-0.27134-0.0426-0.38559-0.12788-0.08569-0.11367-0.12853-0.24154-0.12853-0.38363 0-0.11367 0.04284-0.22734 0.12853-0.34101 0.11425-0.11367 0.24278-0.17051 0.38559-0.17051 0.11425 0 0.2285 0.0568 0.34275 0.17051 0.11425 0.11367 0.17137 0.22734 0.17137 0.34101 0 0.14209-0.05712 0.26996-0.17137 0.38363-0.11425 0.0853-0.2285 0.12788-0.34275 0.12788zm-1.371 0c-0.14281 0-0.27134-0.0426-0.38559-0.12788-0.08569-0.11367-0.12853-0.24154-0.12853-0.38363 0-0.11367 0.04284-0.22734 0.12853-0.34101 0.11425-0.11367 0.24278-0.17051 0.38559-0.17051 0.11425 0 0.2285 0.0568 0.34275 0.17051 0.11425 0.11367 0.17138 0.22734 0.17138 0.34101 0 0.14209-0.05712 0.26996-0.17138 0.38363-0.11425 0.0853-0.2285 0.12788-0.34275 0.12788zm-1.371 0c-0.14281 0-0.27134-0.0426-0.38559-0.12788-0.08569-0.11367-0.12853-0.24154-0.12853-0.38363 0-0.11367 0.04284-0.22734 0.12853-0.34101 0.11425-0.11367 0.24278-0.17051 0.38559-0.17051 0.11425 0 0.2285 0.0568 0.34275 0.17051 0.11425 0.11367 0.17137 0.22734 0.17137 0.34101 0 0.14209-0.05712 0.26996-0.17137 0.38363-0.11425 0.0853-0.2285 0.12788-0.34275 0.12788zm15.081 1.364c-0.14281 0-0.27134-0.0426-0.38559-0.12788-0.08569-0.11367-0.12853-0.24155-0.12853-0.38363 0-0.11367 0.04284-0.22734 0.12853-0.34101 0.11425-0.11367 0.24278-0.17051 0.38559-0.17051 0.11425 0 0.2285 0.0568 0.34275 0.17051 0.11425 0.11367 0.17137 0.22734 0.17137 0.34101 0 0.14208-0.05712 0.26996-0.17137 0.38363-0.11425 0.0853-0.2285 0.12788-0.34275 0.12788zm-1.371 0c-0.14281 0-0.27134-0.0426-0.38559-0.12788-0.08569-0.11367-0.12853-0.24155-0.12853-0.38363 0-0.11367 0.04284-0.22734 0.12853-0.34101 0.11425-0.11367 0.24278-0.17051 0.38559-0.17051 0.11425 0 0.2285 0.0568 0.34275 0.17051 0.11425 0.11367 0.17137 0.22734 0.17137 0.34101 0 0.14208-0.05712 0.26996-0.17137 0.38363-0.11425 0.0853-0.2285 0.12788-0.34275 0.12788zm-1.371 0c-0.14281 0-0.27134-0.0426-0.38559-0.12788-0.08569-0.11367-0.12853-0.24155-0.12853-0.38363 0-0.11367 0.04284-0.22734 0.12853-0.34101 0.11425-0.11367 0.24278-0.17051 0.38559-0.17051 0.11425 0 0.2285 0.0568 0.34275 0.17051 0.11425 0.11367 0.17137 0.22734 0.17137 0.34101 0 0.14208-0.05712 0.26996-0.17137 0.38363-0.11425 0.0853-0.2285 0.12788-0.34275 0.12788zm-1.371 0c-0.14281 0-0.27134-0.0426-0.38559-0.12788-0.08569-0.11367-0.12853-0.24155-0.12853-0.38363 0-0.11367 0.04284-0.22734 0.12853-0.34101 0.11425-0.11367 0.24278-0.17051 0.38559-0.17051 0.11425 0 0.2285 0.0568 0.34275 0.17051 0.11425 0.11367 0.17138 0.22734 0.17138 0.34101 0 0.14208-0.05713 0.26996-0.17138 0.38363-0.11425 0.0853-0.2285 0.12788-0.34275 0.12788zm-1.371 0c-0.14281 0-0.27134-0.0426-0.38559-0.12788-0.08569-0.11367-0.12853-0.24155-0.12853-0.38363 0-0.11367 0.04284-0.22734 0.12853-0.34101 0.11425-0.11367 0.24278-0.17051 0.38559-0.17051 0.11425 0 0.2285 0.0568 0.34275 0.17051 0.11425 0.11367 0.17137 0.22734 0.17137 0.34101 0 0.14208-0.05712 0.26996-0.17137 0.38363-0.11425 0.0853-0.2285 0.12788-0.34275 0.12788zm-1.371 0c-0.14281 0-0.27134-0.0426-0.38559-0.12788-0.08569-0.11367-0.12853-0.24155-0.12853-0.38363 0-0.11367 0.04284-0.22734 0.12853-0.34101 0.11425-0.11367 0.24278-0.17051 0.38559-0.17051 0.11425 0 0.2285 0.0568 0.34275 0.17051 0.11425 0.11367 0.17138 0.22734 0.17138 0.34101 0 0.14208-0.05712 0.26996-0.17138 0.38363-0.11425 0.0853-0.2285 0.12788-0.34275 0.12788zm-1.371 0c-0.14281 0-0.27134-0.0426-0.38559-0.12788-0.08569-0.11367-0.12853-0.24155-0.12853-0.38363 0-0.11367 0.04284-0.22734 0.12853-0.34101 0.11425-0.11367 0.24278-0.17051 0.38559-0.17051 0.11425 0 0.2285 0.0568 0.34275 0.17051 0.11425 0.11367 0.17137 0.22734 0.17137 0.34101 0 0.14208-0.05712 0.26996-0.17137 0.38363-0.11425 0.0853-0.2285 0.12788-0.34275 0.12788zm-1.371 0c-0.14281 0-0.27134-0.0426-0.38559-0.12788-0.08569-0.11367-0.12853-0.24155-0.12853-0.38363 0-0.11367 0.04284-0.22734 0.12853-0.34101 0.11425-0.11367 0.24278-0.17051 0.38559-0.17051 0.11425 0 0.2285 0.0568 0.34275 0.17051 0.11425 0.11367 0.17137 0.22734 0.17137 0.34101 0 0.14208-0.05712 0.26996-0.17137 0.38363-0.11425 0.0853-0.2285 0.12788-0.34275 0.12788zm-1.371 0c-0.14281 0-0.27134-0.0426-0.38559-0.12788-0.08569-0.11367-0.12853-0.24155-0.12853-0.38363 0-0.11367 0.04284-0.22734 0.12853-0.34101 0.11425-0.11367 0.24278-0.17051 0.38559-0.17051 0.11425 0 0.2285 0.0568 0.34275 0.17051 0.11425 0.11367 0.17137 0.22734 0.17137 0.34101 0 0.14208-0.05712 0.26996-0.17137 0.38363-0.11425 0.0853-0.2285 0.12788-0.34275 0.12788zm-1.371 0c-0.14281 0-0.27134-0.0426-0.38559-0.12788-0.08569-0.11367-0.12853-0.24155-0.12853-0.38363 0-0.11367 0.04284-0.22734 0.12853-0.34101 0.11425-0.11367 0.24278-0.17051 0.38559-0.17051 0.11425 0 0.2285 0.0568 0.34275 0.17051 0.11425 0.11367 0.17137 0.22734 0.17137 0.34101 0 0.14208-0.05712 0.26996-0.17137 0.38363-0.11425 0.0853-0.2285 0.12788-0.34275 0.12788zm-1.371 0c-0.14281 0-0.27134-0.0426-0.38559-0.12788-0.08569-0.11367-0.12853-0.24155-0.12853-0.38363 0-0.11367 0.04284-0.22734 0.12853-0.34101 0.11425-0.11367 0.24278-0.17051 0.38559-0.17051 0.11425 0 0.2285 0.0568 0.34275 0.17051 0.11425 0.11367 0.17138 0.22734 0.17138 0.34101 0 0.14208-0.05712 0.26996-0.17138 0.38363-0.11425 0.0853-0.2285 0.12788-0.34275 0.12788zm-1.371 0c-0.14281 0-0.27134-0.0426-0.38559-0.12788-0.08569-0.11367-0.12853-0.24155-0.12853-0.38363 0-0.11367 0.04284-0.22734 0.12853-0.34101 0.11425-0.11367 0.24278-0.17051 0.38559-0.17051 0.11425 0 0.2285 0.0568 0.34275 0.17051 0.11425 0.11367 0.17137 0.22734 0.17137 0.34101 0 0.14208-0.05712 0.26996-0.17137 0.38363-0.11425 0.0853-0.2285 0.12788-0.34275 0.12788zm16.452 1.364c-0.14281 0-0.27134-0.0426-0.38559-0.12788-0.08569-0.11367-0.12853-0.24155-0.12853-0.38364 0-0.11367 0.04284-0.22734 0.12853-0.34101 0.11425-0.11367 0.24278-0.1705 0.38559-0.1705 0.11425 0 0.2285 0.0568 0.34275 0.1705 0.11425 0.11367 0.17137 0.22734 0.17137 0.34101 0 0.14209-0.05712 0.26997-0.17137 0.38364-0.11425 0.0853-0.2285 0.12788-0.34275 0.12788zm-1.371 0c-0.14281 0-0.27134-0.0426-0.38559-0.12788-0.08569-0.11367-0.12853-0.24155-0.12853-0.38364 0-0.11367 0.04284-0.22734 0.12853-0.34101 0.11425-0.11367 0.24278-0.1705 0.38559-0.1705 0.11425 0 0.2285 0.0568 0.34275 0.1705 0.11425 0.11367 0.17137 0.22734 0.17137 0.34101 0 0.14209-0.05712 0.26997-0.17137 0.38364-0.11425 0.0853-0.2285 0.12788-0.34275 0.12788zm-1.371 0c-0.14281 0-0.27134-0.0426-0.38559-0.12788-0.08569-0.11367-0.12853-0.24155-0.12853-0.38364 0-0.11367 0.04284-0.22734 0.12853-0.34101 0.11425-0.11367 0.24278-0.1705 0.38559-0.1705 0.11425 0 0.2285 0.0568 0.34275 0.1705 0.11425 0.11367 0.17137 0.22734 0.17137 0.34101 0 0.14209-0.05712 0.26997-0.17137 0.38364-0.11425 0.0853-0.2285 0.12788-0.34275 0.12788zm-1.371 0c-0.14281 0-0.27134-0.0426-0.38559-0.12788-0.08569-0.11367-0.12853-0.24155-0.12853-0.38364 0-0.11367 0.04284-0.22734 0.12853-0.34101 0.11425-0.11367 0.24278-0.1705 0.38559-0.1705 0.11425 0 0.2285 0.0568 0.34275 0.1705 0.11425 0.11367 0.17137 0.22734 0.17137 0.34101 0 0.14209-0.05712 0.26997-0.17137 0.38364-0.11425 0.0853-0.2285 0.12788-0.34275 0.12788zm-1.371 0c-0.14281 0-0.27134-0.0426-0.38559-0.12788-0.08569-0.11367-0.12853-0.24155-0.12853-0.38364 0-0.11367 0.04284-0.22734 0.12853-0.34101 0.11425-0.11367 0.24278-0.1705 0.38559-0.1705 0.11425 0 0.2285 0.0568 0.34275 0.1705 0.11425 0.11367 0.17138 0.22734 0.17138 0.34101 0 0.14209-0.05713 0.26997-0.17138 0.38364-0.11425 0.0853-0.2285 0.12788-0.34275 0.12788zm-1.371 0c-0.14281 0-0.27134-0.0426-0.38559-0.12788-0.08569-0.11367-0.12853-0.24155-0.12853-0.38364 0-0.11367 0.04284-0.22734 0.12853-0.34101 0.11425-0.11367 0.24278-0.1705 0.38559-0.1705 0.11425 0 0.2285 0.0568 0.34275 0.1705 0.11425 0.11367 0.17137 0.22734 0.17137 0.34101 0 0.14209-0.05712 0.26997-0.17137 0.38364-0.11425 0.0853-0.2285 0.12788-0.34275 0.12788zm-1.371 0c-0.14281 0-0.27134-0.0426-0.38559-0.12788-0.08569-0.11367-0.12853-0.24155-0.12853-0.38364 0-0.11367 0.04284-0.22734 0.12853-0.34101 0.11425-0.11367 0.24278-0.1705 0.38559-0.1705 0.11425 0 0.2285 0.0568 0.34275 0.1705 0.11425 0.11367 0.17138 0.22734 0.17138 0.34101 0 0.14209-0.05712 0.26997-0.17138 0.38364-0.11425 0.0853-0.2285 0.12788-0.34275 0.12788zm-1.371 0c-0.14281 0-0.27134-0.0426-0.38559-0.12788-0.08569-0.11367-0.12853-0.24155-0.12853-0.38364 0-0.11367 0.04284-0.22734 0.12853-0.34101 0.11425-0.11367 0.24278-0.1705 0.38559-0.1705 0.11425 0 0.2285 0.0568 0.34275 0.1705 0.11425 0.11367 0.17137 0.22734 0.17137 0.34101 0 0.14209-0.05712 0.26997-0.17137 0.38364-0.11425 0.0853-0.2285 0.12788-0.34275 0.12788zm-1.371 0c-0.14281 0-0.27134-0.0426-0.38559-0.12788-0.08569-0.11367-0.12853-0.24155-0.12853-0.38364 0-0.11367 0.04284-0.22734 0.12853-0.34101 0.11425-0.11367 0.24278-0.1705 0.38559-0.1705 0.11425 0 0.2285 0.0568 0.34275 0.1705 0.11425 0.11367 0.17137 0.22734 0.17137 0.34101 0 0.14209-0.05712 0.26997-0.17137 0.38364-0.11425 0.0853-0.2285 0.12788-0.34275 0.12788zm-1.371 0c-0.14281 0-0.27134-0.0426-0.38559-0.12788-0.08569-0.11367-0.12853-0.24155-0.12853-0.38364 0-0.11367 0.04284-0.22734 0.12853-0.34101 0.11425-0.11367 0.24278-0.1705 0.38559-0.1705 0.11425 0 0.2285 0.0568 0.34275 0.1705 0.11425 0.11367 0.17137 0.22734 0.17137 0.34101 0 0.14209-0.05712 0.26997-0.17137 0.38364-0.11425 0.0853-0.2285 0.12788-0.34275 0.12788zm-1.371 0c-0.14281 0-0.27134-0.0426-0.38559-0.12788-0.08569-0.11367-0.12853-0.24155-0.12853-0.38364 0-0.11367 0.04284-0.22734 0.12853-0.34101 0.11425-0.11367 0.24278-0.1705 0.38559-0.1705 0.11425 0 0.2285 0.0568 0.34275 0.1705 0.11425 0.11367 0.17137 0.22734 0.17137 0.34101 0 0.14209-0.05712 0.26997-0.17137 0.38364-0.11425 0.0853-0.2285 0.12788-0.34275 0.12788zm-1.371 0c-0.14281 0-0.27134-0.0426-0.38559-0.12788-0.08569-0.11367-0.12853-0.24155-0.12853-0.38364 0-0.11367 0.04284-0.22734 0.12853-0.34101 0.11425-0.11367 0.24278-0.1705 0.38559-0.1705 0.11425 0 0.2285 0.0568 0.34275 0.1705 0.11425 0.11367 0.17138 0.22734 0.17138 0.34101 0 0.14209-0.05712 0.26997-0.17138 0.38364-0.11425 0.0853-0.2285 0.12788-0.34275 0.12788zm-1.371 0c-0.14281 0-0.27134-0.0426-0.38559-0.12788-0.08569-0.11367-0.12853-0.24155-0.12853-0.38364 0-0.11367 0.04284-0.22734 0.12853-0.34101 0.11425-0.11367 0.24278-0.1705 0.38559-0.1705 0.11425 0 0.2285 0.0568 0.34275 0.1705 0.11425 0.11367 0.17137 0.22734 0.17137 0.34101 0 0.14209-0.05712 0.26997-0.17137 0.38364-0.11425 0.0853-0.2285 0.12788-0.34275 0.12788zm16.452 1.364c-0.14281 0-0.27134-0.0426-0.38559-0.12788-0.08569-0.11367-0.12853-0.24154-0.12853-0.38363 0-0.11367 0.04284-0.22734 0.12853-0.34101 0.11425-0.11367 0.24278-0.17051 0.38559-0.17051 0.11425 0 0.2285 0.0568 0.34275 0.17051 0.11425 0.11367 0.17137 0.22734 0.17137 0.34101 0 0.14209-0.05712 0.26996-0.17137 0.38363-0.11425 0.0853-0.2285 0.12788-0.34275 0.12788zm-1.371 0c-0.14281 0-0.27134-0.0426-0.38559-0.12788-0.08569-0.11367-0.12853-0.24154-0.12853-0.38363 0-0.11367 0.04284-0.22734 0.12853-0.34101 0.11425-0.11367 0.24278-0.17051 0.38559-0.17051 0.11425 0 0.2285 0.0568 0.34275 0.17051 0.11425 0.11367 0.17137 0.22734 0.17137 0.34101 0 0.14209-0.05712 0.26996-0.17137 0.38363-0.11425 0.0853-0.2285 0.12788-0.34275 0.12788zm-1.371 0c-0.14281 0-0.27134-0.0426-0.38559-0.12788-0.08569-0.11367-0.12853-0.24154-0.12853-0.38363 0-0.11367 0.04284-0.22734 0.12853-0.34101 0.11425-0.11367 0.24278-0.17051 0.38559-0.17051 0.11425 0 0.2285 0.0568 0.34275 0.17051 0.11425 0.11367 0.17137 0.22734 0.17137 0.34101 0 0.14209-0.05712 0.26996-0.17137 0.38363-0.11425 0.0853-0.2285 0.12788-0.34275 0.12788zm-10.968 0c-0.14281 0-0.27134-0.0426-0.38559-0.12788-0.08569-0.11367-0.12853-0.24154-0.12853-0.38363 0-0.11367 0.04284-0.22734 0.12853-0.34101 0.11425-0.11367 0.24278-0.17051 0.38559-0.17051 0.11425 0 0.2285 0.0568 0.34275 0.17051 0.11425 0.11367 0.17137 0.22734 0.17137 0.34101 0 0.14209-0.05712 0.26996-0.17137 0.38363-0.11425 0.0853-0.2285 0.12788-0.34275 0.12788zm-1.371 0c-0.14281 0-0.27134-0.0426-0.38559-0.12788-0.08569-0.11367-0.12853-0.24154-0.12853-0.38363 0-0.11367 0.04284-0.22734 0.12853-0.34101 0.11425-0.11367 0.24278-0.17051 0.38559-0.17051 0.11425 0 0.2285 0.0568 0.34275 0.17051 0.11425 0.11367 0.17138 0.22734 0.17138 0.34101 0 0.14209-0.05712 0.26996-0.17138 0.38363-0.11425 0.0853-0.2285 0.12788-0.34275 0.12788zm-1.371 0c-0.14281 0-0.27134-0.0426-0.38559-0.12788-0.08569-0.11367-0.12853-0.24154-0.12853-0.38363 0-0.11367 0.04284-0.22734 0.12853-0.34101 0.11425-0.11367 0.24278-0.17051 0.38559-0.17051 0.11425 0 0.2285 0.0568 0.34275 0.17051 0.11425 0.11367 0.17137 0.22734 0.17137 0.34101 0 0.14209-0.05712 0.26996-0.17137 0.38363-0.11425 0.0853-0.2285 0.12788-0.34275 0.12788zm16.452 1.364c-0.14281 0-0.27134-0.0426-0.38559-0.12788-0.08569-0.11367-0.12853-0.24154-0.12853-0.38363 0-0.11367 0.04284-0.22735 0.12853-0.34102 0.11425-0.11367 0.24278-0.1705 0.38559-0.1705 0.11425 0 0.2285 0.0568 0.34275 0.1705 0.11425 0.11367 0.17137 0.22735 0.17137 0.34102 0 0.14209-0.05712 0.26996-0.17137 0.38363-0.11425 0.0853-0.2285 0.12788-0.34275 0.12788zm-1.371 0c-0.14281 0-0.27134-0.0426-0.38559-0.12788-0.08569-0.11367-0.12853-0.24154-0.12853-0.38363 0-0.11367 0.04284-0.22735 0.12853-0.34102 0.11425-0.11367 0.24278-0.1705 0.38559-0.1705 0.11425 0 0.2285 0.0568 0.34275 0.1705 0.11425 0.11367 0.17137 0.22735 0.17137 0.34102 0 0.14209-0.05712 0.26996-0.17137 0.38363-0.11425 0.0853-0.2285 0.12788-0.34275 0.12788zm-1.371 0c-0.14281 0-0.27134-0.0426-0.38559-0.12788-0.08569-0.11367-0.12853-0.24154-0.12853-0.38363 0-0.11367 0.04284-0.22735 0.12853-0.34102 0.11425-0.11367 0.24278-0.1705 0.38559-0.1705 0.11425 0 0.2285 0.0568 0.34275 0.1705 0.11425 0.11367 0.17137 0.22735 0.17137 0.34102 0 0.14209-0.05712 0.26996-0.17137 0.38363-0.11425 0.0853-0.2285 0.12788-0.34275 0.12788zm-10.968 0c-0.14281 0-0.27134-0.0426-0.38559-0.12788-0.08569-0.11367-0.12853-0.24154-0.12853-0.38363 0-0.11367 0.04284-0.22735 0.12853-0.34102 0.11425-0.11367 0.24278-0.1705 0.38559-0.1705 0.11425 0 0.2285 0.0568 0.34275 0.1705 0.11425 0.11367 0.17137 0.22735 0.17137 0.34102 0 0.14209-0.05712 0.26996-0.17137 0.38363-0.11425 0.0853-0.2285 0.12788-0.34275 0.12788zm-1.371 0c-0.14281 0-0.27134-0.0426-0.38559-0.12788-0.08569-0.11367-0.12853-0.24154-0.12853-0.38363 0-0.11367 0.04284-0.22735 0.12853-0.34102 0.11425-0.11367 0.24278-0.1705 0.38559-0.1705 0.11425 0 0.2285 0.0568 0.34275 0.1705 0.11425 0.11367 0.17138 0.22735 0.17138 0.34102 0 0.14209-0.05712 0.26996-0.17138 0.38363-0.11425 0.0853-0.2285 0.12788-0.34275 0.12788zm-1.371 0c-0.14281 0-0.27134-0.0426-0.38559-0.12788-0.08569-0.11367-0.12853-0.24154-0.12853-0.38363 0-0.11367 0.04284-0.22735 0.12853-0.34102 0.11425-0.11367 0.24278-0.1705 0.38559-0.1705 0.11425 0 0.2285 0.0568 0.34275 0.1705 0.11425 0.11367 0.17137 0.22735 0.17137 0.34102 0 0.14209-0.05712 0.26996-0.17137 0.38363-0.11425 0.0853-0.2285 0.12788-0.34275 0.12788zm16.452 1.364c-0.14281 0-0.27134-0.0426-0.38559-0.12788-0.08569-0.11367-0.12853-0.24155-0.12853-0.38364 0-0.11367 0.04284-0.22734 0.12853-0.34101 0.11425-0.11367 0.24278-0.1705 0.38559-0.1705 0.11425 0 0.2285 0.0568 0.34275 0.1705 0.11425 0.11367 0.17137 0.22734 0.17137 0.34101 0 0.14209-0.05712 0.26997-0.17137 0.38364-0.11425 0.0852-0.2285 0.12788-0.34275 0.12788zm-1.371 0c-0.14281 0-0.27134-0.0426-0.38559-0.12788-0.08569-0.11367-0.12853-0.24155-0.12853-0.38364 0-0.11367 0.04284-0.22734 0.12853-0.34101 0.11425-0.11367 0.24278-0.1705 0.38559-0.1705 0.11425 0 0.2285 0.0568 0.34275 0.1705 0.11425 0.11367 0.17137 0.22734 0.17137 0.34101 0 0.14209-0.05712 0.26997-0.17137 0.38364-0.11425 0.0852-0.2285 0.12788-0.34275 0.12788zm-1.371 0c-0.14281 0-0.27134-0.0426-0.38559-0.12788-0.08569-0.11367-0.12853-0.24155-0.12853-0.38364 0-0.11367 0.04284-0.22734 0.12853-0.34101 0.11425-0.11367 0.24278-0.1705 0.38559-0.1705 0.11425 0 0.2285 0.0568 0.34275 0.1705 0.11425 0.11367 0.17137 0.22734 0.17137 0.34101 0 0.14209-0.05712 0.26997-0.17137 0.38364-0.11425 0.0852-0.2285 0.12788-0.34275 0.12788zm-10.968 0c-0.14281 0-0.27134-0.0426-0.38559-0.12788-0.08569-0.11367-0.12853-0.24155-0.12853-0.38364 0-0.11367 0.04284-0.22734 0.12853-0.34101 0.11425-0.11367 0.24278-0.1705 0.38559-0.1705 0.11425 0 0.2285 0.0568 0.34275 0.1705 0.11425 0.11367 0.17137 0.22734 0.17137 0.34101 0 0.14209-0.05712 0.26997-0.17137 0.38364-0.11425 0.0852-0.2285 0.12788-0.34275 0.12788zm-1.371 0c-0.14281 0-0.27134-0.0426-0.38559-0.12788-0.08569-0.11367-0.12853-0.24155-0.12853-0.38364 0-0.11367 0.04284-0.22734 0.12853-0.34101 0.11425-0.11367 0.24278-0.1705 0.38559-0.1705 0.11425 0 0.2285 0.0568 0.34275 0.1705 0.11425 0.11367 0.17138 0.22734 0.17138 0.34101 0 0.14209-0.05712 0.26997-0.17138 0.38364-0.11425 0.0852-0.2285 0.12788-0.34275 0.12788zm-1.371 0c-0.14281 0-0.27134-0.0426-0.38559-0.12788-0.08569-0.11367-0.12853-0.24155-0.12853-0.38364 0-0.11367 0.04284-0.22734 0.12853-0.34101 0.11425-0.11367 0.24278-0.1705 0.38559-0.1705 0.11425 0 0.2285 0.0568 0.34275 0.1705 0.11425 0.11367 0.17137 0.22734 0.17137 0.34101 0 0.14209-0.05712 0.26997-0.17137 0.38364-0.11425 0.0852-0.2285 0.12788-0.34275 0.12788zm16.452 1.364c-0.14281 0-0.27134-0.0426-0.38559-0.12788-0.08569-0.11367-0.12853-0.24154-0.12853-0.38363 0-0.11367 0.04284-0.22734 0.12853-0.34101 0.11425-0.11367 0.24278-0.1705 0.38559-0.1705 0.11425 0 0.2285 0.0568 0.34275 0.1705 0.11425 0.11367 0.17137 0.22734 0.17137 0.34101 0 0.14209-0.05712 0.26996-0.17137 0.38363-0.11425 0.0853-0.2285 0.12788-0.34275 0.12788zm-1.371 0c-0.14281 0-0.27134-0.0426-0.38559-0.12788-0.08569-0.11367-0.12853-0.24154-0.12853-0.38363 0-0.11367 0.04284-0.22734 0.12853-0.34101 0.11425-0.11367 0.24278-0.1705 0.38559-0.1705 0.11425 0 0.2285 0.0568 0.34275 0.1705 0.11425 0.11367 0.17137 0.22734 0.17137 0.34101 0 0.14209-0.05712 0.26996-0.17137 0.38363-0.11425 0.0853-0.2285 0.12788-0.34275 0.12788zm-1.371 0c-0.14281 0-0.27134-0.0426-0.38559-0.12788-0.08569-0.11367-0.12853-0.24154-0.12853-0.38363 0-0.11367 0.04284-0.22734 0.12853-0.34101 0.11425-0.11367 0.24278-0.1705 0.38559-0.1705 0.11425 0 0.2285 0.0568 0.34275 0.1705 0.11425 0.11367 0.17137 0.22734 0.17137 0.34101 0 0.14209-0.05712 0.26996-0.17137 0.38363-0.11425 0.0853-0.2285 0.12788-0.34275 0.12788zm-10.968 0c-0.14281 0-0.27134-0.0426-0.38559-0.12788-0.08569-0.11367-0.12853-0.24154-0.12853-0.38363 0-0.11367 0.04284-0.22734 0.12853-0.34101 0.11425-0.11367 0.24278-0.1705 0.38559-0.1705 0.11425 0 0.2285 0.0568 0.34275 0.1705 0.11425 0.11367 0.17137 0.22734 0.17137 0.34101 0 0.14209-0.05712 0.26996-0.17137 0.38363-0.11425 0.0853-0.2285 0.12788-0.34275 0.12788zm-1.371 0c-0.14281 0-0.27134-0.0426-0.38559-0.12788-0.08569-0.11367-0.12853-0.24154-0.12853-0.38363 0-0.11367 0.04284-0.22734 0.12853-0.34101 0.11425-0.11367 0.24278-0.1705 0.38559-0.1705 0.11425 0 0.2285 0.0568 0.34275 0.1705 0.11425 0.11367 0.17138 0.22734 0.17138 0.34101 0 0.14209-0.05712 0.26996-0.17138 0.38363-0.11425 0.0853-0.2285 0.12788-0.34275 0.12788zm-1.371 0c-0.14281 0-0.27134-0.0426-0.38559-0.12788-0.08569-0.11367-0.12853-0.24154-0.12853-0.38363 0-0.11367 0.04284-0.22734 0.12853-0.34101 0.11425-0.11367 0.24278-0.1705 0.38559-0.1705 0.11425 0 0.2285 0.0568 0.34275 0.1705 0.11425 0.11367 0.17137 0.22734 0.17137 0.34101 0 0.14209-0.05712 0.26996-0.17137 0.38363-0.11425 0.0853-0.2285 0.12788-0.34275 0.12788zm16.452 1.364c-0.14281 0-0.27134-0.0426-0.38559-0.12788-0.08569-0.11367-0.12853-0.24155-0.12853-0.38364 0-0.11367 0.04284-0.22734 0.12853-0.34101 0.11425-0.11367 0.24278-0.1705 0.38559-0.1705 0.11425 0 0.2285 0.0568 0.34275 0.1705 0.11425 0.11367 0.17137 0.22734 0.17137 0.34101 0 0.14209-0.05712 0.26997-0.17137 0.38364-0.11425 0.0853-0.2285 0.12788-0.34275 0.12788zm-1.371 0c-0.14281 0-0.27134-0.0426-0.38559-0.12788-0.08569-0.11367-0.12853-0.24155-0.12853-0.38364 0-0.11367 0.04284-0.22734 0.12853-0.34101 0.11425-0.11367 0.24278-0.1705 0.38559-0.1705 0.11425 0 0.2285 0.0568 0.34275 0.1705 0.11425 0.11367 0.17137 0.22734 0.17137 0.34101 0 0.14209-0.05712 0.26997-0.17137 0.38364-0.11425 0.0853-0.2285 0.12788-0.34275 0.12788zm-1.371 0c-0.14281 0-0.27134-0.0426-0.38559-0.12788-0.08569-0.11367-0.12853-0.24155-0.12853-0.38364 0-0.11367 0.04284-0.22734 0.12853-0.34101 0.11425-0.11367 0.24278-0.1705 0.38559-0.1705 0.11425 0 0.2285 0.0568 0.34275 0.1705 0.11425 0.11367 0.17137 0.22734 0.17137 0.34101 0 0.14209-0.05712 0.26997-0.17137 0.38364-0.11425 0.0853-0.2285 0.12788-0.34275 0.12788zm-10.968 0c-0.14281 0-0.27134-0.0426-0.38559-0.12788-0.08569-0.11367-0.12853-0.24155-0.12853-0.38364 0-0.11367 0.04284-0.22734 0.12853-0.34101 0.11425-0.11367 0.24278-0.1705 0.38559-0.1705 0.11425 0 0.2285 0.0568 0.34275 0.1705 0.11425 0.11367 0.17137 0.22734 0.17137 0.34101 0 0.14209-0.05712 0.26997-0.17137 0.38364-0.11425 0.0853-0.2285 0.12788-0.34275 0.12788zm-1.371 0c-0.14281 0-0.27134-0.0426-0.38559-0.12788-0.08569-0.11367-0.12853-0.24155-0.12853-0.38364 0-0.11367 0.04284-0.22734 0.12853-0.34101 0.11425-0.11367 0.24278-0.1705 0.38559-0.1705 0.11425 0 0.2285 0.0568 0.34275 0.1705 0.11425 0.11367 0.17138 0.22734 0.17138 0.34101 0 0.14209-0.05712 0.26997-0.17138 0.38364-0.11425 0.0853-0.2285 0.12788-0.34275 0.12788zm-1.371 0c-0.14281 0-0.27134-0.0426-0.38559-0.12788-0.08569-0.11367-0.12853-0.24155-0.12853-0.38364 0-0.11367 0.04284-0.22734 0.12853-0.34101 0.11425-0.11367 0.24278-0.1705 0.38559-0.1705 0.11425 0 0.2285 0.0568 0.34275 0.1705 0.11425 0.11367 0.17137 0.22734 0.17137 0.34101 0 0.14209-0.05712 0.26997-0.17137 0.38364-0.11425 0.0853-0.2285 0.12788-0.34275 0.12788zm16.452 1.364c-0.14281 0-0.27134-0.0426-0.38559-0.12787-0.08569-0.11367-0.12853-0.24155-0.12853-0.38364 0-0.11367 0.04284-0.22734 0.12853-0.34101 0.11425-0.11367 0.24278-0.1705 0.38559-0.1705 0.11425 0 0.2285 0.0568 0.34275 0.1705 0.11425 0.11367 0.17137 0.22734 0.17137 0.34101 0 0.14209-0.05712 0.26997-0.17137 0.38364-0.11425 0.0853-0.2285 0.12787-0.34275 0.12787zm-1.371 0c-0.14281 0-0.27134-0.0426-0.38559-0.12787-0.08569-0.11367-0.12853-0.24155-0.12853-0.38364 0-0.11367 0.04284-0.22734 0.12853-0.34101 0.11425-0.11367 0.24278-0.1705 0.38559-0.1705 0.11425 0 0.2285 0.0568 0.34275 0.1705 0.11425 0.11367 0.17137 0.22734 0.17137 0.34101 0 0.14209-0.05712 0.26997-0.17137 0.38364-0.11425 0.0853-0.2285 0.12787-0.34275 0.12787zm-1.371 0c-0.14281 0-0.27134-0.0426-0.38559-0.12787-0.08569-0.11367-0.12853-0.24155-0.12853-0.38364 0-0.11367 0.04284-0.22734 0.12853-0.34101 0.11425-0.11367 0.24278-0.1705 0.38559-0.1705 0.11425 0 0.2285 0.0568 0.34275 0.1705 0.11425 0.11367 0.17137 0.22734 0.17137 0.34101 0 0.14209-0.05712 0.26997-0.17137 0.38364-0.11425 0.0853-0.2285 0.12787-0.34275 0.12787zm-10.968 0c-0.14281 0-0.27134-0.0426-0.38559-0.12787-0.08569-0.11367-0.12853-0.24155-0.12853-0.38364 0-0.11367 0.04284-0.22734 0.12853-0.34101 0.11425-0.11367 0.24278-0.1705 0.38559-0.1705 0.11425 0 0.2285 0.0568 0.34275 0.1705 0.11425 0.11367 0.17137 0.22734 0.17137 0.34101 0 0.14209-0.05712 0.26997-0.17137 0.38364-0.11425 0.0853-0.2285 0.12787-0.34275 0.12787zm-1.371 0c-0.14281 0-0.27134-0.0426-0.38559-0.12787-0.08569-0.11367-0.12853-0.24155-0.12853-0.38364 0-0.11367 0.04284-0.22734 0.12853-0.34101 0.11425-0.11367 0.24278-0.1705 0.38559-0.1705 0.11425 0 0.2285 0.0568 0.34275 0.1705 0.11425 0.11367 0.17138 0.22734 0.17138 0.34101 0 0.14209-0.05712 0.26997-0.17138 0.38364-0.11425 0.0853-0.2285 0.12787-0.34275 0.12787zm-1.371 0c-0.14281 0-0.27134-0.0426-0.38559-0.12787-0.08569-0.11367-0.12853-0.24155-0.12853-0.38364 0-0.11367 0.04284-0.22734 0.12853-0.34101 0.11425-0.11367 0.24278-0.1705 0.38559-0.1705 0.11425 0 0.2285 0.0568 0.34275 0.1705 0.11425 0.11367 0.17137 0.22734 0.17137 0.34101 0 0.14209-0.05712 0.26997-0.17137 0.38364-0.11425 0.0853-0.2285 0.12787-0.34275 0.12787zm16.452 1.364c-0.14281 0-0.27134-0.0426-0.38559-0.12788-0.08569-0.11367-0.12853-0.24154-0.12853-0.38363 0-0.11367 0.04284-0.22734 0.12853-0.34101 0.11425-0.11367 0.24278-0.17051 0.38559-0.17051 0.11425 0 0.2285 0.0568 0.34275 0.17051 0.11425 0.11367 0.17137 0.22734 0.17137 0.34101 0 0.14209-0.05712 0.26996-0.17137 0.38363-0.11425 0.0853-0.2285 0.12788-0.34275 0.12788zm-1.371 0c-0.14281 0-0.27134-0.0426-0.38559-0.12788-0.08569-0.11367-0.12853-0.24154-0.12853-0.38363 0-0.11367 0.04284-0.22734 0.12853-0.34101 0.11425-0.11367 0.24278-0.17051 0.38559-0.17051 0.11425 0 0.2285 0.0568 0.34275 0.17051 0.11425 0.11367 0.17137 0.22734 0.17137 0.34101 0 0.14209-0.05712 0.26996-0.17137 0.38363-0.11425 0.0853-0.2285 0.12788-0.34275 0.12788zm-1.371 0c-0.14281 0-0.27134-0.0426-0.38559-0.12788-0.08569-0.11367-0.12853-0.24154-0.12853-0.38363 0-0.11367 0.04284-0.22734 0.12853-0.34101 0.11425-0.11367 0.24278-0.17051 0.38559-0.17051 0.11425 0 0.2285 0.0568 0.34275 0.17051 0.11425 0.11367 0.17137 0.22734 0.17137 0.34101 0 0.14209-0.05712 0.26996-0.17137 0.38363-0.11425 0.0853-0.2285 0.12788-0.34275 0.12788zm-1.371 0c-0.14281 0-0.27134-0.0426-0.38559-0.12788-0.08569-0.11367-0.12853-0.24154-0.12853-0.38363 0-0.11367 0.04284-0.22734 0.12853-0.34101 0.11425-0.11367 0.24278-0.17051 0.38559-0.17051 0.11425 0 0.2285 0.0568 0.34275 0.17051 0.11425 0.11367 0.17137 0.22734 0.17137 0.34101 0 0.14209-0.05712 0.26996-0.17137 0.38363-0.11425 0.0853-0.2285 0.12788-0.34275 0.12788zm-1.371 0c-0.14281 0-0.27134-0.0426-0.38559-0.12788-0.08569-0.11367-0.12853-0.24154-0.12853-0.38363 0-0.11367 0.04284-0.22734 0.12853-0.34101 0.11425-0.11367 0.24278-0.17051 0.38559-0.17051 0.11425 0 0.2285 0.0568 0.34275 0.17051 0.11425 0.11367 0.17138 0.22734 0.17138 0.34101 0 0.14209-0.05713 0.26996-0.17138 0.38363-0.11425 0.0853-0.2285 0.12788-0.34275 0.12788zm-1.371 0c-0.14281 0-0.27134-0.0426-0.38559-0.12788-0.08569-0.11367-0.12853-0.24154-0.12853-0.38363 0-0.11367 0.04284-0.22734 0.12853-0.34101 0.11425-0.11367 0.24278-0.17051 0.38559-0.17051 0.11425 0 0.2285 0.0568 0.34275 0.17051 0.11425 0.11367 0.17137 0.22734 0.17137 0.34101 0 0.14209-0.05712 0.26996-0.17137 0.38363-0.11425 0.0853-0.2285 0.12788-0.34275 0.12788zm-1.371 0c-0.14281 0-0.27134-0.0426-0.38559-0.12788-0.08569-0.11367-0.12853-0.24154-0.12853-0.38363 0-0.11367 0.04284-0.22734 0.12853-0.34101 0.11425-0.11367 0.24278-0.17051 0.38559-0.17051 0.11425 0 0.2285 0.0568 0.34275 0.17051 0.11425 0.11367 0.17138 0.22734 0.17138 0.34101 0 0.14209-0.05712 0.26996-0.17138 0.38363-0.11425 0.0853-0.2285 0.12788-0.34275 0.12788zm-1.371 0c-0.14281 0-0.27134-0.0426-0.38559-0.12788-0.08569-0.11367-0.12853-0.24154-0.12853-0.38363 0-0.11367 0.04284-0.22734 0.12853-0.34101 0.11425-0.11367 0.24278-0.17051 0.38559-0.17051 0.11425 0 0.2285 0.0568 0.34275 0.17051 0.11425 0.11367 0.17137 0.22734 0.17137 0.34101 0 0.14209-0.05712 0.26996-0.17137 0.38363-0.11425 0.0853-0.2285 0.12788-0.34275 0.12788zm-1.371 0c-0.14281 0-0.27134-0.0426-0.38559-0.12788-0.08569-0.11367-0.12853-0.24154-0.12853-0.38363 0-0.11367 0.04284-0.22734 0.12853-0.34101 0.11425-0.11367 0.24278-0.17051 0.38559-0.17051 0.11425 0 0.2285 0.0568 0.34275 0.17051 0.11425 0.11367 0.17137 0.22734 0.17137 0.34101 0 0.14209-0.05712 0.26996-0.17137 0.38363-0.11425 0.0853-0.2285 0.12788-0.34275 0.12788zm-1.371 0c-0.14281 0-0.27134-0.0426-0.38559-0.12788-0.08569-0.11367-0.12853-0.24154-0.12853-0.38363 0-0.11367 0.04284-0.22734 0.12853-0.34101 0.11425-0.11367 0.24278-0.17051 0.38559-0.17051 0.11425 0 0.2285 0.0568 0.34275 0.17051 0.11425 0.11367 0.17137 0.22734 0.17137 0.34101 0 0.14209-0.05712 0.26996-0.17137 0.38363-0.11425 0.0853-0.2285 0.12788-0.34275 0.12788zm-1.371 0c-0.14281 0-0.27134-0.0426-0.38559-0.12788-0.08569-0.11367-0.12853-0.24154-0.12853-0.38363 0-0.11367 0.04284-0.22734 0.12853-0.34101 0.11425-0.11367 0.24278-0.17051 0.38559-0.17051 0.11425 0 0.2285 0.0568 0.34275 0.17051 0.11425 0.11367 0.17137 0.22734 0.17137 0.34101 0 0.14209-0.05712 0.26996-0.17137 0.38363-0.11425 0.0853-0.2285 0.12788-0.34275 0.12788zm-1.371 0c-0.14281 0-0.27134-0.0426-0.38559-0.12788-0.08569-0.11367-0.12853-0.24154-0.12853-0.38363 0-0.11367 0.04284-0.22734 0.12853-0.34101 0.11425-0.11367 0.24278-0.17051 0.38559-0.17051 0.11425 0 0.2285 0.0568 0.34275 0.17051 0.11425 0.11367 0.17138 0.22734 0.17138 0.34101 0 0.14209-0.05712 0.26996-0.17138 0.38363-0.11425 0.0853-0.2285 0.12788-0.34275 0.12788zm-1.371 0c-0.14281 0-0.27134-0.0426-0.38559-0.12788-0.08569-0.11367-0.12853-0.24154-0.12853-0.38363 0-0.11367 0.04284-0.22734 0.12853-0.34101 0.11425-0.11367 0.24278-0.17051 0.38559-0.17051 0.11425 0 0.2285 0.0568 0.34275 0.17051 0.11425 0.11367 0.17137 0.22734 0.17137 0.34101 0 0.14209-0.05712 0.26996-0.17137 0.38363-0.11425 0.0853-0.2285 0.12788-0.34275 0.12788zm15.081 1.364c-0.14281 0-0.27134-0.0426-0.38559-0.12788-0.08569-0.11367-0.12853-0.24155-0.12853-0.38364 0-0.11367 0.04284-0.22733 0.12853-0.341 0.11425-0.11367 0.24278-0.17051 0.38559-0.17051 0.11425 0 0.2285 0.0568 0.34275 0.17051 0.11425 0.11367 0.17137 0.22733 0.17137 0.341 0 0.14209-0.05712 0.26997-0.17137 0.38364-0.11425 0.0853-0.2285 0.12788-0.34275 0.12788zm-1.371 0c-0.14281 0-0.27134-0.0426-0.38559-0.12788-0.08569-0.11367-0.12853-0.24155-0.12853-0.38364 0-0.11367 0.04284-0.22733 0.12853-0.341 0.11425-0.11367 0.24278-0.17051 0.38559-0.17051 0.11425 0 0.2285 0.0568 0.34275 0.17051 0.11425 0.11367 0.17137 0.22733 0.17137 0.341 0 0.14209-0.05712 0.26997-0.17137 0.38364-0.11425 0.0853-0.2285 0.12788-0.34275 0.12788zm-1.371 0c-0.14281 0-0.27134-0.0426-0.38559-0.12788-0.08569-0.11367-0.12853-0.24155-0.12853-0.38364 0-0.11367 0.04284-0.22733 0.12853-0.341 0.11425-0.11367 0.24278-0.17051 0.38559-0.17051 0.11425 0 0.2285 0.0568 0.34275 0.17051 0.11425 0.11367 0.17137 0.22733 0.17137 0.341 0 0.14209-0.05712 0.26997-0.17137 0.38364-0.11425 0.0853-0.2285 0.12788-0.34275 0.12788zm-1.371 0c-0.14281 0-0.27134-0.0426-0.38559-0.12788-0.08569-0.11367-0.12853-0.24155-0.12853-0.38364 0-0.11367 0.04284-0.22733 0.12853-0.341 0.11425-0.11367 0.24278-0.17051 0.38559-0.17051 0.11425 0 0.2285 0.0568 0.34275 0.17051 0.11425 0.11367 0.17138 0.22733 0.17138 0.341 0 0.14209-0.05713 0.26997-0.17138 0.38364-0.11425 0.0853-0.2285 0.12788-0.34275 0.12788zm-1.371 0c-0.14281 0-0.27134-0.0426-0.38559-0.12788-0.08569-0.11367-0.12853-0.24155-0.12853-0.38364 0-0.11367 0.04284-0.22733 0.12853-0.341 0.11425-0.11367 0.24278-0.17051 0.38559-0.17051 0.11425 0 0.2285 0.0568 0.34275 0.17051 0.11425 0.11367 0.17137 0.22733 0.17137 0.341 0 0.14209-0.05712 0.26997-0.17137 0.38364-0.11425 0.0853-0.2285 0.12788-0.34275 0.12788zm-1.371 0c-0.14281 0-0.27134-0.0426-0.38559-0.12788-0.08569-0.11367-0.12853-0.24155-0.12853-0.38364 0-0.11367 0.04284-0.22733 0.12853-0.341 0.11425-0.11367 0.24278-0.17051 0.38559-0.17051 0.11425 0 0.2285 0.0568 0.34275 0.17051 0.11425 0.11367 0.17138 0.22733 0.17138 0.341 0 0.14209-0.05712 0.26997-0.17138 0.38364-0.11425 0.0853-0.2285 0.12788-0.34275 0.12788zm-1.371 0c-0.14281 0-0.27134-0.0426-0.38559-0.12788-0.08569-0.11367-0.12853-0.24155-0.12853-0.38364 0-0.11367 0.04284-0.22733 0.12853-0.341 0.11425-0.11367 0.24278-0.17051 0.38559-0.17051 0.11425 0 0.2285 0.0568 0.34275 0.17051 0.11425 0.11367 0.17137 0.22733 0.17137 0.341 0 0.14209-0.05712 0.26997-0.17137 0.38364-0.11425 0.0853-0.2285 0.12788-0.34275 0.12788zm-1.371 0c-0.14281 0-0.27134-0.0426-0.38559-0.12788-0.08569-0.11367-0.12853-0.24155-0.12853-0.38364 0-0.11367 0.04284-0.22733 0.12853-0.341 0.11425-0.11367 0.24278-0.17051 0.38559-0.17051 0.11425 0 0.2285 0.0568 0.34275 0.17051 0.11425 0.11367 0.17137 0.22733 0.17137 0.341 0 0.14209-0.05712 0.26997-0.17137 0.38364-0.11425 0.0853-0.2285 0.12788-0.34275 0.12788zm-1.371 0c-0.14281 0-0.27134-0.0426-0.38559-0.12788-0.08569-0.11367-0.12853-0.24155-0.12853-0.38364 0-0.11367 0.04284-0.22733 0.12853-0.341 0.11425-0.11367 0.24278-0.17051 0.38559-0.17051 0.11425 0 0.2285 0.0568 0.34275 0.17051 0.11425 0.11367 0.17137 0.22733 0.17137 0.341 0 0.14209-0.05712 0.26997-0.17137 0.38364-0.11425 0.0853-0.2285 0.12788-0.34275 0.12788zm-1.371 0c-0.14281 0-0.27134-0.0426-0.38559-0.12788-0.08569-0.11367-0.12853-0.24155-0.12853-0.38364 0-0.11367 0.04284-0.22733 0.12853-0.341 0.11425-0.11367 0.24278-0.17051 0.38559-0.17051 0.11425 0 0.2285 0.0568 0.34275 0.17051 0.11425 0.11367 0.17137 0.22733 0.17137 0.341 0 0.14209-0.05712 0.26997-0.17137 0.38364-0.11425 0.0853-0.2285 0.12788-0.34275 0.12788zm-1.371 0c-0.14281 0-0.27134-0.0426-0.38559-0.12788-0.08569-0.11367-0.12853-0.24155-0.12853-0.38364 0-0.11367 0.04284-0.22733 0.12853-0.341 0.11425-0.11367 0.24278-0.17051 0.38559-0.17051 0.11425 0 0.2285 0.0568 0.34275 0.17051 0.11425 0.11367 0.17138 0.22733 0.17138 0.341 0 0.14209-0.05712 0.26997-0.17138 0.38364-0.11425 0.0853-0.2285 0.12788-0.34275 0.12788zm-1.371 0c-0.14281 0-0.27134-0.0426-0.38559-0.12788-0.08569-0.11367-0.12853-0.24155-0.12853-0.38364 0-0.11367 0.04284-0.22733 0.12853-0.341 0.11425-0.11367 0.24278-0.17051 0.38559-0.17051 0.11425 0 0.2285 0.0568 0.34275 0.17051 0.11425 0.11367 0.17137 0.22733 0.17137 0.341 0 0.14209-0.05712 0.26997-0.17137 0.38364-0.11425 0.0853-0.2285 0.12788-0.34275 0.12788zm13.71 1.364c-0.14281 0-0.27134-0.0426-0.38559-0.12788-0.08569-0.11367-0.12853-0.24154-0.12853-0.38363 0-0.11367 0.04284-0.22734 0.12853-0.34101 0.11425-0.11367 0.24278-0.1705 0.38559-0.1705 0.11425 0 0.2285 0.0568 0.34275 0.1705 0.11425 0.11367 0.17137 0.22734 0.17137 0.34101 0 0.14209-0.05712 0.26996-0.17137 0.38363-0.11425 0.0853-0.2285 0.12788-0.34275 0.12788zm-1.371 0c-0.14281 0-0.27134-0.0426-0.38559-0.12788-0.08569-0.11367-0.12853-0.24154-0.12853-0.38363 0-0.11367 0.04284-0.22734 0.12853-0.34101 0.11425-0.11367 0.24278-0.1705 0.38559-0.1705 0.11425 0 0.2285 0.0568 0.34275 0.1705 0.11425 0.11367 0.17137 0.22734 0.17137 0.34101 0 0.14209-0.05712 0.26996-0.17137 0.38363-0.11425 0.0853-0.2285 0.12788-0.34275 0.12788zm-1.371 0c-0.14281 0-0.27134-0.0426-0.38559-0.12788-0.08569-0.11367-0.12853-0.24154-0.12853-0.38363 0-0.11367 0.04284-0.22734 0.12853-0.34101 0.11425-0.11367 0.24278-0.1705 0.38559-0.1705 0.11425 0 0.2285 0.0568 0.34275 0.1705 0.11425 0.11367 0.17138 0.22734 0.17138 0.34101 0 0.14209-0.05713 0.26996-0.17138 0.38363-0.11425 0.0853-0.2285 0.12788-0.34275 0.12788zm-1.371 0c-0.14281 0-0.27134-0.0426-0.38559-0.12788-0.08569-0.11367-0.12853-0.24154-0.12853-0.38363 0-0.11367 0.04284-0.22734 0.12853-0.34101 0.11425-0.11367 0.24278-0.1705 0.38559-0.1705 0.11425 0 0.2285 0.0568 0.34275 0.1705 0.11425 0.11367 0.17137 0.22734 0.17137 0.34101 0 0.14209-0.05712 0.26996-0.17137 0.38363-0.11425 0.0853-0.2285 0.12788-0.34275 0.12788zm-1.371 0c-0.14281 0-0.27134-0.0426-0.38559-0.12788-0.08569-0.11367-0.12853-0.24154-0.12853-0.38363 0-0.11367 0.04284-0.22734 0.12853-0.34101 0.11425-0.11367 0.24278-0.1705 0.38559-0.1705 0.11425 0 0.2285 0.0568 0.34275 0.1705 0.11425 0.11367 0.17138 0.22734 0.17138 0.34101 0 0.14209-0.05712 0.26996-0.17138 0.38363-0.11425 0.0853-0.2285 0.12788-0.34275 0.12788zm-1.371 0c-0.14281 0-0.27134-0.0426-0.38559-0.12788-0.08569-0.11367-0.12853-0.24154-0.12853-0.38363 0-0.11367 0.04284-0.22734 0.12853-0.34101 0.11425-0.11367 0.24278-0.1705 0.38559-0.1705 0.11425 0 0.2285 0.0568 0.34275 0.1705 0.11425 0.11367 0.17137 0.22734 0.17137 0.34101 0 0.14209-0.05712 0.26996-0.17137 0.38363-0.11425 0.0853-0.2285 0.12788-0.34275 0.12788zm-1.371 0c-0.14281 0-0.27134-0.0426-0.38559-0.12788-0.08569-0.11367-0.12853-0.24154-0.12853-0.38363 0-0.11367 0.04284-0.22734 0.12853-0.34101 0.11425-0.11367 0.24278-0.1705 0.38559-0.1705 0.11425 0 0.2285 0.0568 0.34275 0.1705 0.11425 0.11367 0.17137 0.22734 0.17137 0.34101 0 0.14209-0.05712 0.26996-0.17137 0.38363-0.11425 0.0853-0.2285 0.12788-0.34275 0.12788zm-1.371 0c-0.14281 0-0.27134-0.0426-0.38559-0.12788-0.08569-0.11367-0.12853-0.24154-0.12853-0.38363 0-0.11367 0.04284-0.22734 0.12853-0.34101 0.11425-0.11367 0.24278-0.1705 0.38559-0.1705 0.11425 0 0.2285 0.0568 0.34275 0.1705 0.11425 0.11367 0.17137 0.22734 0.17137 0.34101 0 0.14209-0.05712 0.26996-0.17137 0.38363-0.11425 0.0853-0.2285 0.12788-0.34275 0.12788zm-1.371 0c-0.14281 0-0.27134-0.0426-0.38559-0.12788-0.08569-0.11367-0.12853-0.24154-0.12853-0.38363 0-0.11367 0.04284-0.22734 0.12853-0.34101 0.11425-0.11367 0.24278-0.1705 0.38559-0.1705 0.11425 0 0.2285 0.0568 0.34275 0.1705 0.11425 0.11367 0.17137 0.22734 0.17137 0.34101 0 0.14209-0.05712 0.26996-0.17137 0.38363-0.11425 0.0853-0.2285 0.12788-0.34275 0.12788zm-1.371 0c-0.14281 0-0.27134-0.0426-0.38559-0.12788-0.08569-0.11367-0.12853-0.24154-0.12853-0.38363 0-0.11367 0.04284-0.22734 0.12853-0.34101 0.11425-0.11367 0.24278-0.1705 0.38559-0.1705 0.11425 0 0.2285 0.0568 0.34275 0.1705 0.11425 0.11367 0.17138 0.22734 0.17138 0.34101 0 0.14209-0.05712 0.26996-0.17138 0.38363-0.11425 0.0853-0.2285 0.12788-0.34275 0.12788zm-1.371 0c-0.14281 0-0.27134-0.0426-0.38559-0.12788-0.08569-0.11367-0.12853-0.24154-0.12853-0.38363 0-0.11367 0.04284-0.22734 0.12853-0.34101 0.11425-0.11367 0.24278-0.1705 0.38559-0.1705 0.11425 0 0.2285 0.0568 0.34275 0.1705 0.11425 0.11367 0.17137 0.22734 0.17137 0.34101 0 0.14209-0.05712 0.26996-0.17137 0.38363-0.11425 0.0853-0.2285 0.12788-0.34275 0.12788zm2.742 1.364c-0.14281 0-0.27134-0.0426-0.38559-0.12788-0.08569-0.11367-0.12853-0.24154-0.12853-0.38363 0-0.11367 0.04284-0.22734 0.12853-0.34101 0.11425-0.11367 0.24278-0.17051 0.38559-0.17051 0.11425 0 0.2285 0.0568 0.34275 0.17051 0.11425 0.11367 0.17137 0.22734 0.17137 0.34101 0 0.14209-0.05712 0.26996-0.17137 0.38363-0.11425 0.0853-0.2285 0.12788-0.34275 0.12788zm-1.371 0c-0.14281 0-0.27134-0.0426-0.38559-0.12788-0.08569-0.11367-0.12853-0.24154-0.12853-0.38363 0-0.11367 0.04284-0.22734 0.12853-0.34101 0.11425-0.11367 0.24278-0.17051 0.38559-0.17051 0.11425 0 0.2285 0.0568 0.34275 0.17051 0.11425 0.11367 0.17138 0.22734 0.17138 0.34101 0 0.14209-0.05712 0.26996-0.17138 0.38363-0.11425 0.0853-0.2285 0.12788-0.34275 0.12788zm-1.371 0c-0.14281 0-0.27134-0.0426-0.38559-0.12788-0.08569-0.11367-0.12853-0.24154-0.12853-0.38363 0-0.11367 0.04284-0.22734 0.12853-0.34101 0.11425-0.11367 0.24278-0.17051 0.38559-0.17051 0.11425 0 0.2285 0.0568 0.34275 0.17051 0.11425 0.11367 0.17137 0.22734 0.17137 0.34101 0 0.14209-0.05712 0.26996-0.17137 0.38363-0.11425 0.0853-0.2285 0.12788-0.34275 0.12788zm2.742 1.364c-0.14281 0-0.27134-0.0426-0.38559-0.12788-0.08569-0.11367-0.12853-0.24155-0.12853-0.38364 0-0.11367 0.04284-0.22733 0.12853-0.341 0.11425-0.11367 0.24278-0.17051 0.38559-0.17051 0.11425 0 0.2285 0.0568 0.34275 0.17051 0.11425 0.11367 0.17137 0.22733 0.17137 0.341 0 0.14209-0.05712 0.26997-0.17137 0.38364-0.11425 0.0853-0.2285 0.12788-0.34275 0.12788zm-1.371 0c-0.14281 0-0.27134-0.0426-0.38559-0.12788-0.08569-0.11367-0.12853-0.24155-0.12853-0.38364 0-0.11367 0.04284-0.22733 0.12853-0.341 0.11425-0.11367 0.24278-0.17051 0.38559-0.17051 0.11425 0 0.2285 0.0568 0.34275 0.17051 0.11425 0.11367 0.17138 0.22733 0.17138 0.341 0 0.14209-0.05712 0.26997-0.17138 0.38364-0.11425 0.0853-0.2285 0.12788-0.34275 0.12788zm-1.371 0c-0.14281 0-0.27134-0.0426-0.38559-0.12788-0.08569-0.11367-0.12853-0.24155-0.12853-0.38364 0-0.11367 0.04284-0.22733 0.12853-0.341 0.11425-0.11367 0.24278-0.17051 0.38559-0.17051 0.11425 0 0.2285 0.0568 0.34275 0.17051 0.11425 0.11367 0.17137 0.22733 0.17137 0.341 0 0.14209-0.05712 0.26997-0.17137 0.38364-0.11425 0.0853-0.2285 0.12788-0.34275 0.12788zm2.742 1.364c-0.14281 0-0.27134-0.0426-0.38559-0.12788-0.08569-0.11367-0.12853-0.24154-0.12853-0.38363 0-0.11367 0.04284-0.22734 0.12853-0.34101 0.11425-0.11367 0.24278-0.1705 0.38559-0.1705 0.11425 0 0.2285 0.0568 0.34275 0.1705 0.11425 0.11367 0.17137 0.22734 0.17137 0.34101 0 0.14209-0.05712 0.26996-0.17137 0.38363-0.11425 0.0853-0.2285 0.12788-0.34275 0.12788zm-1.371 0c-0.14281 0-0.27134-0.0426-0.38559-0.12788-0.08569-0.11367-0.12853-0.24154-0.12853-0.38363 0-0.11367 0.04284-0.22734 0.12853-0.34101 0.11425-0.11367 0.24278-0.1705 0.38559-0.1705 0.11425 0 0.2285 0.0568 0.34275 0.1705 0.11425 0.11367 0.17138 0.22734 0.17138 0.34101 0 0.14209-0.05712 0.26996-0.17138 0.38363-0.11425 0.0853-0.2285 0.12788-0.34275 0.12788zm-1.371 0c-0.14281 0-0.27134-0.0426-0.38559-0.12788-0.08569-0.11367-0.12853-0.24154-0.12853-0.38363 0-0.11367 0.04284-0.22734 0.12853-0.34101 0.11425-0.11367 0.24278-0.1705 0.38559-0.1705 0.11425 0 0.2285 0.0568 0.34275 0.1705 0.11425 0.11367 0.17137 0.22734 0.17137 0.34101 0 0.14209-0.05712 0.26996-0.17137 0.38363-0.11425 0.0853-0.2285 0.12788-0.34275 0.12788zm2.742 1.364c-0.14281 0-0.27134-0.0426-0.38559-0.12788-0.08569-0.11367-0.12853-0.24154-0.12853-0.38363 0-0.11367 0.04284-0.22734 0.12853-0.34101 0.11425-0.11367 0.24278-0.17051 0.38559-0.17051 0.11425 0 0.2285 0.0568 0.34275 0.17051 0.11425 0.11367 0.17137 0.22734 0.17137 0.34101 0 0.14209-0.05712 0.26996-0.17137 0.38363-0.11425 0.0853-0.2285 0.12788-0.34275 0.12788zm-1.371 0c-0.14281 0-0.27134-0.0426-0.38559-0.12788-0.08569-0.11367-0.12853-0.24154-0.12853-0.38363 0-0.11367 0.04284-0.22734 0.12853-0.34101 0.11425-0.11367 0.24278-0.17051 0.38559-0.17051 0.11425 0 0.2285 0.0568 0.34275 0.17051 0.11425 0.11367 0.17138 0.22734 0.17138 0.34101 0 0.14209-0.05712 0.26996-0.17138 0.38363-0.11425 0.0853-0.2285 0.12788-0.34275 0.12788zm-1.371 0c-0.14281 0-0.27134-0.0426-0.38559-0.12788-0.08569-0.11367-0.12853-0.24154-0.12853-0.38363 0-0.11367 0.04284-0.22734 0.12853-0.34101 0.11425-0.11367 0.24278-0.17051 0.38559-0.17051 0.11425 0 0.2285 0.0568 0.34275 0.17051 0.11425 0.11367 0.17137 0.22734 0.17137 0.34101 0 0.14209-0.05712 0.26996-0.17137 0.38363-0.11425 0.0853-0.2285 0.12788-0.34275 0.12788zm2.742 1.364c-0.14281 0-0.27134-0.0426-0.38559-0.12788-0.08569-0.11367-0.12853-0.24155-0.12853-0.38364 0-0.11367 0.04284-0.22734 0.12853-0.34101 0.11425-0.11367 0.24278-0.1705 0.38559-0.1705 0.11425 0 0.2285 0.0568 0.34275 0.1705 0.11425 0.11367 0.17137 0.22734 0.17137 0.34101 0 0.14209-0.05712 0.26997-0.17137 0.38364-0.11425 0.0853-0.2285 0.12788-0.34275 0.12788zm-1.371 0c-0.14281 0-0.27134-0.0426-0.38559-0.12788-0.08569-0.11367-0.12853-0.24155-0.12853-0.38364 0-0.11367 0.04284-0.22734 0.12853-0.34101 0.11425-0.11367 0.24278-0.1705 0.38559-0.1705 0.11425 0 0.2285 0.0568 0.34275 0.1705 0.11425 0.11367 0.17138 0.22734 0.17138 0.34101 0 0.14209-0.05712 0.26997-0.17138 0.38364-0.11425 0.0853-0.2285 0.12788-0.34275 0.12788zm-1.371 0c-0.14281 0-0.27134-0.0426-0.38559-0.12788-0.08569-0.11367-0.12853-0.24155-0.12853-0.38364 0-0.11367 0.04284-0.22734 0.12853-0.34101 0.11425-0.11367 0.24278-0.1705 0.38559-0.1705 0.11425 0 0.2285 0.0568 0.34275 0.1705 0.11425 0.11367 0.17137 0.22734 0.17137 0.34101 0 0.14209-0.05712 0.26997-0.17137 0.38364-0.11425 0.0853-0.2285 0.12788-0.34275 0.12788z" fill="#009dda" style="font-feature-settings:normal;font-variant-caps:normal;font-variant-ligatures:normal;font-variant-numeric:normal"/>
<g transform="matrix(.55078 0 0 .55078 9.477 85.923)">
<g transform="translate(0 -1.5312)" fill="none" stroke="#009dda" stroke-width=".47808px">
<path d="m50.084 61.556 7.0281 0.06496 6.1031-0.36184 10.117 1.2389 7.5536-0.72861-1.8366 8.9511-12.029-0.02497-6.4975-0.32354 0.48536 7.0389 5.1202 0.42478 7.387 0.46033 0.35252 7.9581-4.4112 0.98287-9.051-0.31067-1.6268 8.4988 3.061 8.0831-12.439 0.18807 0.17561-12.133 0.46829-4.5295-0.70244-7.7648 1.6353-5.7826-1.1276-12.145m6.969 0.58943 3.801 8.5019 2.5291-8.6946 6.5229 8.6521 3.5942-7.5184 5.7833 7.8487"/>
<path d="m60.581 70.372-6.9462-3.1067-3.5313-5.5023m3.375 5.346 3.2534-5.3399 12.971 8.7383"/>
<path d="m53.479 67.109-2.313 6.1721 9.0696-2.6882-3.4993 6.7534-5.5703-4.0652"/>
<path d="m73.515 78.296-4.0366 8.5763-3.461-8.7052-5.7292 8.9209 0.71951-9.6771-4.2719-0.06452-7.0382 2.0389 4.4906 3.4955 6.0897 3.9549-5.8439 6.5829-4.1972-6.4174 10.051 0.08682"/>
<path d="m60.278 86.835-3.5421-9.4892-2.5476 5.5344-3.9514 4.1205"/>
<path d="m49.577 91.563 4.7613 1.7003 4.1676 2.2003-8.9289 5.482 2.7708 2.4774 1.5024-4.6343-4.2731-4.5427"/>
<path d="m61.84 103.51-7.9902-4.7189 0.48819-5.5254"/>
</g>
</g>
</g>
</g>
</svg>
