<?xml version="1.0" encoding="UTF-8"?>
<svg width="117.46mm" height="50.451mm" version="1.1" viewBox="0 0 117.46 50.451" xmlns="http://www.w3.org/2000/svg">
<g transform="translate(-36.521 -118.32)">
<g transform="scale(.9671 1.034)" fill="#009dda" stroke-width=".20759" style="font-feature-settings:normal;font-variant-caps:normal;font-variant-ligatures:normal;font-variant-numeric:normal" aria-label="FRAMEWORK FOR ">
<path d="m92.962 115.18v0.38172h-2.5915v2.2522h2.337v0.38173h-2.337v2.9096h-0.45807v-5.9252z" style="font-feature-settings:normal;font-variant-caps:normal;font-variant-ligatures:normal;font-variant-numeric:normal"/>
<path d="m93.721 115.18h1.5184q0.95431 0 1.459 0.41565 0.50472 0.41142 0.50472 1.1155 0 1.0264-1.1282 1.4421 0.29266 0.13997 0.7889 0.90342l1.3403 2.0486h-0.53865l-1.0349-1.6244q-0.51745-0.81434-0.80586-1.0137-0.28841-0.20359-0.84403-0.20359h-0.80162v2.8417h-0.45807zm0.45807 0.38172v2.32h0.984q0.75072 0 1.1452-0.30114 0.39869-0.30538 0.39869-0.861 0-0.54714-0.40293-0.85252t-1.1579-0.30538z" style="font-feature-settings:normal;font-variant-caps:normal;font-variant-ligatures:normal;font-variant-numeric:normal"/>
<path d="m101.05 115.14 2.7357 5.9676h-0.47927l-0.93735-2.0486h-2.8926l-0.93734 2.0486h-0.47928l2.7357-5.9676zm1.1452 3.5373-1.2767-2.7908-1.2682 2.7908z" style="font-feature-settings:normal;font-variant-caps:normal;font-variant-ligatures:normal;font-variant-numeric:normal"/>
<path d="m107.21 117.93 2.2564-2.7526h0.46231v5.9252h-0.46231v-5.2551l-2.2564 2.7696-2.2607-2.7696v5.2551h-0.45806v-5.9252h0.45806z" style="font-feature-settings:normal;font-variant-caps:normal;font-variant-ligatures:normal;font-variant-numeric:normal"/>
<path d="m114.54 115.18v0.38172h-2.7739v2.3709h2.7018v0.38597h-2.7018v2.4049h2.8417v0.38172h-3.2998v-5.9252z" style="font-feature-settings:normal;font-variant-caps:normal;font-variant-ligatures:normal;font-variant-numeric:normal"/>
<path d="m119.35 116.16-1.9892 5.0006h-0.123l-2.3794-5.9846h0.4708l1.9595 4.9158 1.9892-4.9158h0.13996l1.9807 4.9158 1.9638-4.9158h0.4708l-2.3837 5.9846h-0.11027z" style="font-feature-settings:normal;font-variant-caps:normal;font-variant-ligatures:normal;font-variant-numeric:normal"/>
<path d="m127.4 115.1q1.3148 0 2.2267 0.88645 0.91613 0.88221 0.91613 2.1546 0 1.2682-0.91613 2.1546-0.9119 0.88221-2.2267 0.88221-1.3106 0-2.2225-0.88221-0.90765-0.88645-0.90765-2.1546 0-1.2724 0.90765-2.1546 0.9119-0.88645 2.2225-0.88645zm0.017 5.6538q1.107 0 1.8662-0.75497 0.76345-0.7592 0.76345-1.8577 0-1.1028-0.76345-1.8577-0.7592-0.75921-1.8662-0.75921-1.1112 0-1.8832 0.75921-0.76769 0.75496-0.76769 1.8577 0 1.0985 0.76769 1.8577 0.77193 0.75497 1.8832 0.75497z" style="font-feature-settings:normal;font-variant-caps:normal;font-variant-ligatures:normal;font-variant-numeric:normal"/>
<path d="m131.67 115.18h1.5184q0.95431 0 1.459 0.41565 0.50472 0.41142 0.50472 1.1155 0 1.0264-1.1282 1.4421 0.29265 0.13997 0.78889 0.90342l1.3403 2.0486h-0.53866l-1.0349-1.6244q-0.51745-0.81434-0.80586-1.0137-0.28842-0.20359-0.84404-0.20359h-0.80162v2.8417h-0.45807zm0.45807 0.38172v2.32h0.984q0.75072 0 1.1452-0.30114 0.39869-0.30538 0.39869-0.861 0-0.54714-0.40293-0.85252t-1.1579-0.30538z" style="font-feature-settings:normal;font-variant-caps:normal;font-variant-ligatures:normal;font-variant-numeric:normal"/>
<path d="m140.51 115.18-2.8332 2.9562 3.1047 2.969h-0.58531l-3.1004-2.9605v2.9605h-0.45806v-5.9252h0.45806v2.9478l2.8417-2.9478z" style="font-feature-settings:normal;font-variant-caps:normal;font-variant-ligatures:normal;font-variant-numeric:normal"/>
<path d="m146.73 115.18v0.38172h-2.5915v2.2522h2.337v0.38173h-2.337v2.9096h-0.45807v-5.9252z" style="font-feature-settings:normal;font-variant-caps:normal;font-variant-ligatures:normal;font-variant-numeric:normal"/>
<path d="m150.37 115.1q1.3148 0 2.2267 0.88645 0.91613 0.88221 0.91613 2.1546 0 1.2682-0.91613 2.1546-0.9119 0.88221-2.2267 0.88221-1.3106 0-2.2225-0.88221-0.90765-0.88645-0.90765-2.1546 0-1.2724 0.90765-2.1546 0.9119-0.88645 2.2225-0.88645zm0.017 5.6538q1.107 0 1.8662-0.75497 0.76344-0.7592 0.76344-1.8577 0-1.1028-0.76344-1.8577-0.75921-0.75921-1.8662-0.75921-1.1112 0-1.8832 0.75921-0.76769 0.75496-0.76769 1.8577 0 1.0985 0.76769 1.8577 0.77193 0.75497 1.8832 0.75497z" style="font-feature-settings:normal;font-variant-caps:normal;font-variant-ligatures:normal;font-variant-numeric:normal"/>
<path d="m154.64 115.18h1.5184q0.95431 0 1.459 0.41565 0.50472 0.41142 0.50472 1.1155 0 1.0264-1.1282 1.4421 0.29266 0.13997 0.7889 0.90342l1.3403 2.0486h-0.53866l-1.0349-1.6244q-0.51745-0.81434-0.80587-1.0137-0.28841-0.20359-0.84403-0.20359h-0.80162v2.8417h-0.45807zm0.45807 0.38172v2.32h0.984q0.75072 0 1.1452-0.30114 0.39869-0.30538 0.39869-0.861 0-0.54714-0.40293-0.85252t-1.1579-0.30538z" style="font-feature-settings:normal;font-variant-caps:normal;font-variant-ligatures:normal;font-variant-numeric:normal"/>
</g>
<g transform="scale(.98721 1.013)" fill="#009dda" stroke-width=".38862" style="font-feature-settings:normal;font-variant-caps:normal;font-variant-ligatures:normal;font-variant-numeric:normal" aria-label=" EDUCATION">
<path d="m92.738 158.08v0.54238h-3.9413v3.3688h3.8389v0.54841h-3.8389v3.417h4.0377v0.54239h-4.6886v-8.419z" style="font-feature-settings:normal;font-variant-caps:normal;font-variant-ligatures:normal;font-variant-numeric:normal"/>
<path d="m94.184 158.08h2.947q2.2358 0 3.411 1.1752 1.1812 1.1752 1.1812 3.0374 0 1.826-1.1691 3.0193-1.1631 1.1872-3.3085 1.1872h-3.0615zm0.65086 0.54238v7.3342h2.3744q1.6332 0 2.7179-1.0004 1.0908-1.0064 1.0908-2.6637 0-1.6211-1.0727-2.6456t-2.7782-1.0245z" style="font-feature-settings:normal;font-variant-caps:normal;font-variant-ligatures:normal;font-variant-numeric:normal"/>
<path d="m109.53 158.08h0.65086v4.5922q0 1.8863-0.98231 2.9108-0.98232 1.0245-2.5432 1.0245-1.5548 0-2.5372-1.0124-0.98231-1.0124-0.98231-2.7722v-4.7428h0.65688v4.7187q0 1.5066 0.7955 2.3564 0.80152 0.84973 2.0671 0.84973 1.2776 0 2.0731-0.85576 0.80152-0.86179 0.80152-2.4407z" style="font-feature-settings:normal;font-variant-caps:normal;font-variant-ligatures:normal;font-variant-numeric:normal"/>
<path d="m118.96 158.68v0.71113q-1.5307-0.81358-3.0012-0.81358-1.5669 0-2.6215 1.0667t-1.0546 2.6637q0 1.6151 1.0607 2.6577t2.7059 1.0426q1.374 0 2.9952-0.86178v0.67496q-1.4946 0.78947-2.9831 0.78947-1.9224 0-3.2061-1.2294-1.2776-1.2354-1.2776-3.0735 0-1.8501 1.3078-3.0916t3.1157-1.2415q1.4222 0 2.959 0.7051z" style="font-feature-settings:normal;font-variant-caps:normal;font-variant-ligatures:normal;font-variant-numeric:normal"/>
<path d="m123.64 158.02 3.8871 8.4793h-0.681l-1.3318-2.9108h-4.1101l-1.3318 2.9108h-0.681l3.8871-8.4793zm1.6272 5.0261-1.814-3.9654-1.8019 3.9654z" style="font-feature-settings:normal;font-variant-caps:normal;font-variant-ligatures:normal;font-variant-numeric:normal"/>
<path d="m134.6 158.08v0.54238h-3.1579v7.8766h-0.65688v-7.8766h-3.1579v-0.54238z" style="font-feature-settings:normal;font-variant-caps:normal;font-variant-ligatures:normal;font-variant-numeric:normal"/>
<path d="m136.29 158.08v8.419h-0.65087v-8.419z" style="font-feature-settings:normal;font-variant-caps:normal;font-variant-ligatures:normal;font-variant-numeric:normal"/>
<path d="m142.32 157.97q1.8682 0 3.1639 1.2595 1.3017 1.2535 1.3017 3.0614 0 1.8019-1.3017 3.0615-1.2957 1.2535-3.1639 1.2535-1.8622 0-3.1579-1.2535-1.2897-1.2595-1.2897-3.0615 0-1.8079 1.2897-3.0614 1.2957-1.2595 3.1579-1.2595zm0.0241 8.0333q1.5729 0 2.6516-1.0727 1.0848-1.0787 1.0848-2.6396 0-1.5669-1.0848-2.6396-1.0787-1.0787-2.6516-1.0787-1.5789 0-2.6758 1.0787-1.0908 1.0727-1.0908 2.6396 0 1.5609 1.0908 2.6396 1.0968 1.0727 2.6758 1.0727z" style="font-feature-settings:normal;font-variant-caps:normal;font-variant-ligatures:normal;font-variant-numeric:normal"/>
<path d="m155.97 158.08v8.419h-0.54238l-6.3941-7.3584v7.3584h-0.65086v-8.419h0.55444l6.382 7.3583v-7.3583z" style="font-feature-settings:normal;font-variant-caps:normal;font-variant-ligatures:normal;font-variant-numeric:normal"/>
</g>
<rect x="86.997" y="138.62" width="3.5017" height="3.2509" fill="none" stroke-width="0"/>
<g fill="#009dda" stroke-width=".24222" style="font-feature-settings:normal;font-variant-caps:normal;font-variant-ligatures:normal;font-variant-numeric:normal" aria-label="PROGRAMMING">
<path d="m86.978 147.71h1.8q1.0332 0 1.5802 0.46285 0.55168 0.46285 0.55168 1.2623 0 0.80882-0.55636 1.281-0.55168 0.4722-1.6223 0.4722h-1.2483v3.053h-0.50493zm0.50493 0.42077v2.6369h1.2156q0.81818 0 1.2436-0.34597t0.42545-0.97713q0-0.60311-0.4161-0.95844-0.4161-0.35532-1.1922-0.35532z" style="font-feature-settings:normal;font-variant-caps:normal;font-variant-ligatures:normal;font-variant-numeric:normal"/>
<path d="m91.868 147.71h1.6738q1.0519 0 1.6083 0.45817 0.55636 0.45351 0.55636 1.2296 0 1.1314-1.2436 1.5896 0.32259 0.15429 0.8696 0.99584l1.4774 2.2582h-0.59376l-1.1408-1.7906q-0.57038-0.89766-0.8883-1.1174-0.31792-0.22441-0.93038-0.22441h-0.88363v3.1324h-0.50493zm0.50493 0.42077v2.5574h1.0847q0.82753 0 1.2623-0.33194 0.43948-0.33662 0.43948-0.94908 0-0.60312-0.44415-0.93974t-1.2764-0.33662z" style="font-feature-settings:normal;font-variant-caps:normal;font-variant-ligatures:normal;font-variant-numeric:normal"/>
<path d="m100.55 147.63q1.4493 0 2.4545 0.97714 1.0099 0.97246 1.0099 2.375 0 1.3979-1.0099 2.375-1.0052 0.97246-2.4545 0.97246-1.4447 0-2.4498-0.97246-1.0005-0.97714-1.0005-2.375 0-1.4026 1.0005-2.375 1.0052-0.97714 2.4498-0.97714zm0.0187 6.2322q1.2202 0 2.0571-0.8322 0.84155-0.83688 0.84155-2.0478 0-1.2156-0.84155-2.0478-0.83688-0.83688-2.0571-0.83688-1.2249 0-2.0758 0.83688-0.84623 0.8322-0.84623 2.0478 0 1.2109 0.84623 2.0478 0.8509 0.8322 2.0758 0.8322z" style="font-feature-settings:normal;font-variant-caps:normal;font-variant-ligatures:normal;font-variant-numeric:normal"/>
<path d="m110.72 148.18v0.57039q-1.1595-0.65922-2.3143-0.65922-1.239 0-2.0618 0.82285t-0.82285 2.0618 0.8135 2.0618q0.8135 0.81818 2.2114 0.81818 1.0099 0 1.7906-0.40208v-1.7626h-1.3792v-0.42077h1.8888v2.5013q-1.1548 0.55169-2.319 0.55169-1.5195 0-2.5387-0.96311-1.0145-0.96311-1.0145-2.4031 0-1.4306 0.99584-2.3797 1.0005-0.95376 2.5106-0.95376 1.0286 0 2.2395 0.55636z" style="font-feature-settings:normal;font-variant-caps:normal;font-variant-ligatures:normal;font-variant-numeric:normal"/>
<path d="m112.14 147.71h1.6738q1.0519 0 1.6083 0.45817 0.55636 0.45351 0.55636 1.2296 0 1.1314-1.2436 1.5896 0.3226 0.15429 0.86961 0.99584l1.4774 2.2582h-0.59377l-1.1408-1.7906q-0.57038-0.89766-0.8883-1.1174-0.31792-0.22441-0.93038-0.22441h-0.88363v3.1324h-0.50493zm0.50493 0.42077v2.5574h1.0847q0.82753 0 1.2623-0.33194 0.43948-0.33662 0.43948-0.94908 0-0.60312-0.44415-0.93974-0.44416-0.33662-1.2764-0.33662z" style="font-feature-settings:normal;font-variant-caps:normal;font-variant-ligatures:normal;font-variant-numeric:normal"/>
<path d="m120.21 147.66 3.0156 6.5781h-0.52831l-1.0332-2.2582h-3.1885l-1.0332 2.2582h-0.52831l3.0156-6.5781zm1.2623 3.8992-1.4073-3.0763-1.3979 3.0763z" style="font-feature-settings:normal;font-variant-caps:normal;font-variant-ligatures:normal;font-variant-numeric:normal"/>
<path d="m127.01 150.75 2.4872-3.0343h0.50961v6.5314h-0.50961v-5.7927l-2.4872 3.053-2.4919-3.053v5.7927h-0.50493v-6.5314h0.50493z" style="font-feature-settings:normal;font-variant-caps:normal;font-variant-ligatures:normal;font-variant-numeric:normal"/>
<path d="m134.49 150.75 2.4873-3.0343h0.5096v6.5314h-0.5096v-5.7927l-2.4873 3.053-2.4919-3.053v5.7927h-0.50493v-6.5314h0.50493z" style="font-feature-settings:normal;font-variant-caps:normal;font-variant-ligatures:normal;font-variant-numeric:normal"/>
<path d="m139.49 147.71v6.5314h-0.50493v-6.5314z" style="font-feature-settings:normal;font-variant-caps:normal;font-variant-ligatures:normal;font-variant-numeric:normal"/>
<path d="m146.87 147.71v6.5314h-0.42078l-4.9605-5.7085v5.7085h-0.50493v-6.5314h0.43013l4.9511 5.7085v-5.7085z" style="font-feature-settings:normal;font-variant-caps:normal;font-variant-ligatures:normal;font-variant-numeric:normal"/>
<path d="m153.85 148.18v0.57039q-1.1595-0.65922-2.3143-0.65922-1.239 0-2.0618 0.82285t-0.82285 2.0618 0.8135 2.0618q0.8135 0.81818 2.2114 0.81818 1.0099 0 1.7906-0.40208v-1.7626h-1.3792v-0.42077h1.8888v2.5013q-1.1548 0.55169-2.3189 0.55169-1.5195 0-2.5387-0.96311-1.0145-0.96311-1.0145-2.4031 0-1.4306 0.99583-2.3797 1.0005-0.95376 2.5106-0.95376 1.0286 0 2.2395 0.55636z" style="font-feature-settings:normal;font-variant-caps:normal;font-variant-ligatures:normal;font-variant-numeric:normal"/>
</g>
<g fill="#009dda" stroke-width=".19223" style="font-feature-settings:normal;font-variant-caps:normal;font-variant-ligatures:normal;font-variant-numeric:normal" aria-label="GAMIFIED">
<path d="m96.812 132.06v0.95818q-1.9478-1.1074-3.8877-1.1074-2.0813 0-3.4636 1.3823t-1.3823 3.4636 1.3666 3.4636q1.3666 1.3744 3.7149 1.3744 1.6965 0 3.0081-0.67544v-2.961h-2.3169v-0.70686h3.173v4.2019q-1.9399 0.92677-3.8956 0.92677-2.5526 0-4.2647-1.6179-1.7043-1.6179-1.7043-4.037 0-2.4033 1.6729-3.9977 1.6808-1.6022 4.2176-1.6022 1.7279 0 3.7621 0.93463z" style="font-feature-settings:normal;font-variant-caps:normal;font-variant-ligatures:normal;font-variant-numeric:normal"/>
<path d="m103.52 131.19 5.0658 11.051h-0.8875l-1.7357-3.7935h-5.3564l-1.7357 3.7935h-0.8875l5.0658-11.051zm2.1206 6.5502-2.364-5.1679-2.3484 5.1679z" style="font-feature-settings:normal;font-variant-caps:normal;font-variant-ligatures:normal;font-variant-numeric:normal"/>
<path d="m114.94 136.37 4.1783-5.0972h0.85608v10.972h-0.85608v-9.7311l-4.1783 5.1287-4.1862-5.1287v9.7311h-0.84824v-10.972h0.84824z" style="font-feature-settings:normal;font-variant-caps:normal;font-variant-ligatures:normal;font-variant-numeric:normal"/>
<path d="m123.33 131.27v10.972h-0.84824v-10.972z" style="font-feature-settings:normal;font-variant-caps:normal;font-variant-ligatures:normal;font-variant-numeric:normal"/>
<path d="m131.49 131.27v0.70686h-4.7988v4.1705h4.3276v0.70686h-4.3276v5.3878h-0.84823v-10.972z" style="font-feature-settings:normal;font-variant-caps:normal;font-variant-ligatures:normal;font-variant-numeric:normal"/>
<path d="m133.73 131.27v10.972h-0.84823v-10.972z" style="font-feature-settings:normal;font-variant-caps:normal;font-variant-ligatures:normal;font-variant-numeric:normal"/>
<path d="m142.26 131.27v0.70686h-5.1365v4.3904h5.003v0.71471h-5.003v4.4532h5.2622v0.70686h-6.1104v-10.972z" style="font-feature-settings:normal;font-variant-caps:normal;font-variant-ligatures:normal;font-variant-numeric:normal"/>
<path d="m144.15 131.27h3.8406q2.9138 0 4.4454 1.5315 1.5394 1.5315 1.5394 3.9584 0 2.3798-1.5237 3.9348-1.5158 1.5472-4.3118 1.5472h-3.9898zm0.84824 0.70686v9.5583h3.0945q2.1284 0 3.5422-1.3038 1.4216-1.3116 1.4216-3.4715 0-2.1127-1.398-3.4479t-3.6207-1.3352z" style="font-feature-settings:normal;font-variant-caps:normal;font-variant-ligatures:normal;font-variant-numeric:normal"/>
</g>
<g transform="matrix(.19826 0 0 .18146 3.0068 87.477)" fill="none" stroke="#009dda">
<g transform="matrix(1.1788 0 0 1.1029 -32.595 -48.716)" stroke-width="1.2235" style="font-feature-settings:normal;font-variant-caps:normal;font-variant-ligatures:normal;font-variant-numeric:normal" aria-label="G">
<path d="m299.18 219.75c-7.102 0.89954-10.613 2.3473-13.73 5.9624-4.2957 4.2957-5.9385 9.47-5.9385 15.523v34.415c0 6.053 2.1478 11.247 6.4435 15.582 4.2957 4.2957 9.4895 6.4435 15.582 6.4435 6.053 0 11.465-1.8934 15.761-6.1891 4.3347-4.3347 6.264-9.783 6.264-15.836h-22.025v-20.326h42.293v20.326c0 7.6541-1.894 14.742-5.682 21.264-3.749 6.4826-8.8842 11.618-15.406 15.406-6.4826 3.788-11.699 5.682-19.353 5.682m-5.723-6.6566-0.2142 6.6225c-8.302 0.0341-12.172-1.6137-18.188-5.1082-6.4826-3.788-10.608-9.463-14.396-15.946-3.788-6.5216-5.682-13.609-5.682-21.264v-34.415c0-7.6541 1.894-14.722 5.682-21.205 3.788-6.5216 8.9233-11.676 15.406-15.464 6.5216-3.788 13.609-5.682 21.264-5.682s14.722 1.894 21.205 5.682c6.5216 3.788 11.657 8.9428 15.406 15.464 3.788 6.4826 5.682 13.551 5.682 21.205h-20.268c0-6.053-1.2152-11.736-5.5499-16.032-3.8073-3.8419-9.1799-5.0194-13.134-5.5751l-0.17198-6.4205" fill="none" stroke="#009dda" stroke-width="1.2235" style="font-feature-settings:normal;font-variant-caps:normal;font-variant-ligatures:normal;font-variant-numeric:normal"/>
</g>
<g stroke-width="1.395">
<path d="m364.61 209.71c-2.8543 0.0787-8.7156 0.21708-8.7156 0.21708-1.1917-6.2199-3.7082-12.371-8.378-15.666-6.5804-5.6237-14.787-8.155-24.06-8.155-9.3322 0-17.288 2.8119-23.869 8.4356-6.5804 5.5731-9.8323 14.27-9.8706 22.123m6.9444 7.5397-7.1429-0.0819-0.19841 30.842m-7.1552 9.6923 7.3003-1.5643c0.56075 3.5526 4.6095 11.005 10.519 16.055 6.5804 5.573 13.941 8.3596 23.274 8.3596 9.2724 0 16.604-3.3818 23.184-8.9548 5.8964-4.9938 11.417-16.188 11.388-23.864l-0.0287-7.5508-18.859 0.0884" style="font-feature-settings:normal;font-variant-caps:normal;font-variant-ligatures:normal;font-variant-numeric:normal"/>
<path d="m364.68 210.18c-0.79365-10.206-7.0815-17.119-10.729-19.945m-1.2606-10.385-4.4581 5.4213c-8.5152-5.7851-14.231-7.3673-24.746-7.3673-11.539 0-17.21 3.4264-23.76 7.1047m0 8.9286c-0.62625 0.49242-5.1947-5.3425-5.7692-4.8085-6.89 6.4038-12.357 17.824-12.19 27.73m-0.19841 6.9444-0.70223 23.934-8.0279 0.73658m8.1349 6.746c-0.1298 9.0143 4.862 23.497 12.999 29.953m6.1508 4.5635c9.724 4.4138 11.824 5.0334 23.363 5.0334 10.318 0 18.24-3.1026 27.721-9.8994-0.84687-0.89244-3.9962-5.1259-4.8656-6.0466m4.8656 6.0466c6.953-5.9353 13.866-16.242 14.498-28.199 0.29672-5.6152 0.0492-16.869 0.0492-16.869l-34.806 0.34013-0.2676 7.5384" style="font-feature-settings:normal;font-variant-caps:normal;font-variant-ligatures:normal;font-variant-numeric:normal"/>
<path d="m348.81 217.34-7.8878 0.27156c-0.66771-9.2022-3.9869-16.138-17.166-16.401-10.333-0.2064-17.597 6.3823-17.909 16.682v36.478c0 13.101 13.145 16.431 17.958 16.275 12.424 0.73193 16.836-9.2597 16.836-9.2597"/>
</g>
</g>
<g transform="matrix(.19826 0 0 .18263 -38.767 87.03)" stroke="#009dda" stroke-miterlimit="1.5" stroke-width="1.3905">
<path d="m561.48 321.75h17.663v17.8h-17.663zm-17.663 53.401h17.663v17.8h-17.663zm17.663 53.401h17.663v17.8h-17.663zm-52.988-17.8h17.663v17.8h-17.663zm0-17.8h17.663v17.8h-17.663zm0-35.601h17.663v17.8h-17.663zm0-17.8h17.663v17.8h-17.663zm35.325-17.8h17.663v17.8h-17.663zm-17.663 0h17.663v17.8h-17.663zm-17.663 0h17.663v17.8h-17.663zm17.663 53.401h17.663v17.8h-17.663zm-17.663 0h17.663v17.8h-17.663zm35.325 53.401h17.663v17.8h-17.663zm-17.663 0h17.663v17.8h-17.663zm-17.663 0h17.663v17.8h-17.663zm-17.663 0h17.663v17.8h-17.663zm0-17.8h17.663v17.8h-17.663zm0-17.8h17.663v17.8h-17.663zm0-17.8h17.663v17.8h-17.663zm0-17.8h17.663v17.8h-17.663zm0-17.8h17.663v17.8h-17.663zm0-17.8h17.663v17.8h-17.663z" fill="none" stroke="#009dda" stroke-linecap="round" stroke-linejoin="bevel" stroke-miterlimit="1.5" stroke-width="1.3905"/>
</g>
<path d="m48.302 157.73c-0.14281 0-0.27134-0.0426-0.38559-0.12788-0.08569-0.11367-0.12853-0.24155-0.12853-0.38364 0-0.11367 0.04284-0.22733 0.12853-0.341 0.11425-0.11367 0.24278-0.17051 0.38559-0.17051 0.11425 0 0.2285 0.0568 0.34275 0.17051 0.11425 0.11367 0.17138 0.22733 0.17138 0.341 0 0.14209-0.05712 0.26997-0.17138 0.38364-0.11425 0.0852-0.2285 0.12788-0.34275 0.12788zm1.3712-5.4603c-0.14281 0-0.27134-0.0426-0.38559-0.12788-0.08569-0.11367-0.12853-0.24154-0.12853-0.38363 0-0.11367 0.04284-0.22734 0.12853-0.34101 0.11425-0.11367 0.24278-0.1705 0.38559-0.1705 0.11425 0 0.2285 0.0568 0.34275 0.1705 0.11425 0.11367 0.17137 0.22734 0.17137 0.34101 0 0.14209-0.05712 0.26996-0.17137 0.38363-0.11425 0.0853-0.2285 0.12788-0.34275 0.12788zm0 1.364c-0.14281 0-0.27134-0.0426-0.38559-0.12788-0.08569-0.11367-0.12853-0.24155-0.12853-0.38364 0-0.11367 0.04284-0.22733 0.12853-0.341 0.11425-0.11367 0.24278-0.17051 0.38559-0.17051 0.11425 0 0.2285 0.0568 0.34275 0.17051 0.11425 0.11367 0.17137 0.22733 0.17137 0.341 0 0.14209-0.05712 0.26997-0.17137 0.38364-0.11425 0.0853-0.2285 0.12788-0.34275 0.12788zm0 1.364c-0.14281 0-0.27134-0.0426-0.38559-0.12788-0.08569-0.11367-0.12853-0.24155-0.12853-0.38364 0-0.11367 0.04284-0.22734 0.12853-0.34101 0.11425-0.11367 0.24278-0.1705 0.38559-0.1705 0.11425 0 0.2285 0.0568 0.34275 0.1705 0.11425 0.11367 0.17137 0.22734 0.17137 0.34101 0 0.14209-0.05712 0.26997-0.17137 0.38364-0.11425 0.0853-0.2285 0.12788-0.34275 0.12788zm0 1.364c-0.14281 0-0.27134-0.0426-0.38559-0.12788-0.08569-0.11367-0.12853-0.24154-0.12853-0.38363 0-0.11367 0.04284-0.22734 0.12853-0.34101 0.11425-0.11367 0.24278-0.1705 0.38559-0.1705 0.11425 0 0.2285 0.0568 0.34275 0.1705 0.11425 0.11367 0.17137 0.22734 0.17137 0.34101 0 0.14209-0.05712 0.26996-0.17137 0.38363-0.11425 0.0853-0.2285 0.12788-0.34275 0.12788zm0 1.364c-0.14281 0-0.27134-0.0426-0.38559-0.12788-0.08569-0.11367-0.12853-0.24155-0.12853-0.38364 0-0.11367 0.04284-0.22733 0.12853-0.341 0.11425-0.11367 0.24278-0.17051 0.38559-0.17051 0.11425 0 0.2285 0.0568 0.34275 0.17051 0.11425 0.11367 0.17137 0.22733 0.17137 0.341 0 0.14209-0.05712 0.26997-0.17137 0.38364-0.11425 0.0853-0.2285 0.12788-0.34275 0.12788zm-8.2088-5.5286c-0.14281 0-0.27134-0.0426-0.38559-0.12788-0.08569-0.11367-0.12853-0.24154-0.12853-0.38363 0-0.11367 0.04284-0.22734 0.12853-0.34101 0.11425-0.11367 0.24278-0.17051 0.38559-0.17051 0.11425 0 0.2285 0.0568 0.34275 0.17051 0.11425 0.11367 0.17137 0.22734 0.17137 0.34101 0 0.14209-0.05712 0.26996-0.17137 0.38363-0.11425 0.0853-0.2285 0.12788-0.34275 0.12788zm0 1.364c-0.14281 0-0.27134-0.0426-0.38559-0.12788-0.08569-0.11367-0.12853-0.24155-0.12853-0.38364 0-0.11367 0.04284-0.22734 0.12853-0.34101 0.11425-0.11367 0.24278-0.1705 0.38559-0.1705 0.11425 0 0.2285 0.0568 0.34275 0.1705 0.11425 0.11367 0.17137 0.22734 0.17137 0.34101 0 0.14209-0.05712 0.26997-0.17137 0.38364-0.11425 0.0853-0.2285 0.12788-0.34275 0.12788zm0 1.364c-0.14281 0-0.27134-0.0426-0.38559-0.12788-0.08569-0.11367-0.12853-0.24154-0.12853-0.38363 0-0.11367 0.04284-0.22734 0.12853-0.34101 0.11425-0.11367 0.24278-0.1705 0.38559-0.1705 0.11425 0 0.2285 0.0568 0.34275 0.1705 0.11425 0.11367 0.17137 0.22734 0.17137 0.34101 0 0.14209-0.05712 0.26996-0.17137 0.38363-0.11425 0.0853-0.2285 0.12788-0.34275 0.12788zm0 1.364c-0.14281 0-0.27134-0.0426-0.38559-0.12788-0.08569-0.11367-0.12853-0.24154-0.12853-0.38363 0-0.11367 0.04284-0.22734 0.12853-0.34101 0.11425-0.11367 0.24278-0.17051 0.38559-0.17051 0.11425 0 0.2285 0.0568 0.34275 0.17051 0.11425 0.11367 0.17137 0.22734 0.17137 0.34101 0 0.14209-0.05712 0.26996-0.17137 0.38363-0.11425 0.0853-0.2285 0.12788-0.34275 0.12788zm0 1.364c-0.14281 0-0.27134-0.0426-0.38559-0.12788-0.08569-0.11367-0.12853-0.24155-0.12853-0.38364 0-0.11367 0.04284-0.22734 0.12853-0.34101 0.11425-0.11367 0.24278-0.1705 0.38559-0.1705 0.11425 0 0.2285 0.0568 0.34275 0.1705 0.11425 0.11367 0.17137 0.22734 0.17137 0.34101 0 0.14209-0.05712 0.26997-0.17137 0.38364-0.11425 0.0853-0.2285 0.12788-0.34275 0.12788zm0 5.5017c-0.14281 0-0.27134-0.0426-0.38559-0.12788-0.08569-0.11367-0.12853-0.24154-0.12853-0.38363 0-0.11367 0.04284-0.22734 0.12853-0.34101 0.11425-0.11367 0.24278-0.17051 0.38559-0.17051 0.11425 0 0.2285 0.0568 0.34275 0.17051 0.11425 0.11367 0.17137 0.22734 0.17137 0.34101 0 0.14209-0.05712 0.26996-0.17137 0.38363-0.11425 0.0853-0.2285 0.12788-0.34275 0.12788zm0 1.364c-0.14281 0-0.27134-0.0426-0.38559-0.12788-0.08569-0.11367-0.12853-0.24155-0.12853-0.38364 0-0.11367 0.04284-0.22733 0.12853-0.341 0.11425-0.11367 0.24278-0.17051 0.38559-0.17051 0.11425 0 0.2285 0.0568 0.34275 0.17051 0.11425 0.11367 0.17137 0.22733 0.17137 0.341 0 0.14209-0.05712 0.26997-0.17137 0.38364-0.11425 0.0853-0.2285 0.12788-0.34275 0.12788zm0 1.364c-0.14281 0-0.27134-0.0426-0.38559-0.12788-0.08569-0.11367-0.12853-0.24154-0.12853-0.38363 0-0.11367 0.04284-0.22734 0.12853-0.34101 0.11425-0.11367 0.24278-0.1705 0.38559-0.1705 0.11425 0 0.2285 0.0568 0.34275 0.1705 0.11425 0.11367 0.17137 0.22734 0.17137 0.34101 0 0.14209-0.05712 0.26996-0.17137 0.38363-0.11425 0.0853-0.2285 0.12788-0.34275 0.12788zm0 1.364c-0.14281 0-0.27134-0.0426-0.38559-0.12788-0.08569-0.11367-0.12853-0.24154-0.12853-0.38363 0-0.11367 0.04284-0.22734 0.12853-0.34101 0.11425-0.11367 0.24278-0.17051 0.38559-0.17051 0.11425 0 0.2285 0.0568 0.34275 0.17051 0.11425 0.11367 0.17137 0.22734 0.17137 0.34101 0 0.14209-0.05712 0.26996-0.17137 0.38363-0.11425 0.0853-0.2285 0.12788-0.34275 0.12788zm0 1.364c-0.14281 0-0.27134-0.0426-0.38559-0.12788-0.08569-0.11367-0.12853-0.24155-0.12853-0.38364 0-0.11367 0.04284-0.22734 0.12853-0.34101 0.11425-0.11367 0.24278-0.1705 0.38559-0.1705 0.11425 0 0.2285 0.0568 0.34275 0.1705 0.11425 0.11367 0.17137 0.22734 0.17137 0.34101 0 0.14209-0.05712 0.26997-0.17137 0.38364-0.11425 0.0853-0.2285 0.12788-0.34275 0.12788zm8.2201-17.78c-0.14281 0-0.27134-0.0426-0.38559-0.12788-0.08569-0.11367-0.12853-0.24155-0.12853-0.38363 0-0.11367 0.04284-0.22735 0.12853-0.34102 0.11425-0.11367 0.24278-0.1705 0.38559-0.1705 0.11425 0 0.2285 0.0568 0.34275 0.1705 0.11425 0.11367 0.17137 0.22735 0.17137 0.34102 0 0.14208-0.05712 0.26996-0.17137 0.38363-0.11425 0.0853-0.2285 0.12788-0.34275 0.12788zm-1.371 0c-0.14281 0-0.27134-0.0426-0.38559-0.12788-0.08569-0.11367-0.12853-0.24155-0.12853-0.38363 0-0.11367 0.04284-0.22735 0.12853-0.34102 0.11425-0.11367 0.24278-0.1705 0.38559-0.1705 0.11425 0 0.2285 0.0568 0.34275 0.1705 0.11425 0.11367 0.17138 0.22735 0.17138 0.34102 0 0.14208-0.05712 0.26996-0.17138 0.38363-0.11425 0.0853-0.2285 0.12788-0.34275 0.12788zm-6.8549 0c-0.14281 0-0.27134-0.0426-0.38559-0.12788-0.08569-0.11367-0.12853-0.24155-0.12853-0.38363 0-0.11367 0.04284-0.22735 0.12853-0.34102 0.11425-0.11367 0.24278-0.1705 0.38559-0.1705 0.11425 0 0.2285 0.0568 0.34275 0.1705 0.11425 0.11367 0.17137 0.22735 0.17137 0.34102 0 0.14208-0.05712 0.26996-0.17137 0.38363-0.11425 0.0853-0.2285 0.12788-0.34275 0.12788zm9.5576-4.0442c-0.14281 0-0.27134-0.0426-0.38559-0.12788-0.08569-0.11367-0.12853-0.24154-0.12853-0.38363 0-0.11367 0.04284-0.22734 0.12853-0.34101 0.11425-0.11367 0.24278-0.17051 0.38559-0.17051 0.11425 0 0.2285 0.0568 0.34275 0.17051 0.11425 0.11367 0.17137 0.22734 0.17137 0.34101 0 0.14209-0.05712 0.26996-0.17137 0.38363-0.11425 0.0853-0.2285 0.12788-0.34275 0.12788zm-1.371 0c-0.14281 0-0.27134-0.0426-0.38559-0.12788-0.08569-0.11367-0.12853-0.24154-0.12853-0.38363 0-0.11367 0.04284-0.22734 0.12853-0.34101 0.11425-0.11367 0.24278-0.17051 0.38559-0.17051 0.11425 0 0.2285 0.0568 0.34275 0.17051 0.11425 0.11367 0.17137 0.22734 0.17137 0.34101 0 0.14209-0.05712 0.26996-0.17137 0.38363-0.11425 0.0853-0.2285 0.12788-0.34275 0.12788zm-1.371 0c-0.14281 0-0.27134-0.0426-0.38559-0.12788-0.08569-0.11367-0.12853-0.24154-0.12853-0.38363 0-0.11367 0.04284-0.22734 0.12853-0.34101 0.11425-0.11367 0.24278-0.17051 0.38559-0.17051 0.11425 0 0.2285 0.0568 0.34275 0.17051 0.11425 0.11367 0.17138 0.22734 0.17138 0.34101 0 0.14209-0.05713 0.26996-0.17138 0.38363-0.11425 0.0853-0.2285 0.12788-0.34275 0.12788zm-1.371 0c-0.14281 0-0.27134-0.0426-0.38559-0.12788-0.08569-0.11367-0.12853-0.24154-0.12853-0.38363 0-0.11367 0.04284-0.22734 0.12853-0.34101 0.11425-0.11367 0.24278-0.17051 0.38559-0.17051 0.11425 0 0.2285 0.0568 0.34275 0.17051 0.11425 0.11367 0.17137 0.22734 0.17137 0.34101 0 0.14209-0.05712 0.26996-0.17137 0.38363-0.11425 0.0853-0.2285 0.12788-0.34275 0.12788zm-1.371 0c-0.14281 0-0.27134-0.0426-0.38559-0.12788-0.08569-0.11367-0.12853-0.24154-0.12853-0.38363 0-0.11367 0.04284-0.22734 0.12853-0.34101 0.11425-0.11367 0.24278-0.17051 0.38559-0.17051 0.11425 0 0.2285 0.0568 0.34275 0.17051 0.11425 0.11367 0.17138 0.22734 0.17138 0.34101 0 0.14209-0.05712 0.26996-0.17138 0.38363-0.11425 0.0853-0.2285 0.12788-0.34275 0.12788zm-1.371 0c-0.14281 0-0.27134-0.0426-0.38559-0.12788-0.08569-0.11367-0.12853-0.24154-0.12853-0.38363 0-0.11367 0.04284-0.22734 0.12853-0.34101 0.11425-0.11367 0.24278-0.17051 0.38559-0.17051 0.11425 0 0.2285 0.0568 0.34275 0.17051 0.11425 0.11367 0.17137 0.22734 0.17137 0.34101 0 0.14209-0.05712 0.26996-0.17137 0.38363-0.11425 0.0853-0.2285 0.12788-0.34275 0.12788zm-1.371 0c-0.14281 0-0.27134-0.0426-0.38559-0.12788-0.08569-0.11367-0.12853-0.24154-0.12853-0.38363 0-0.11367 0.04284-0.22734 0.12853-0.34101 0.11425-0.11367 0.24278-0.17051 0.38559-0.17051 0.11425 0 0.2285 0.0568 0.34275 0.17051 0.11425 0.11367 0.17137 0.22734 0.17137 0.34101 0 0.14209-0.05712 0.26996-0.17137 0.38363-0.11425 0.0853-0.2285 0.12788-0.34275 0.12788zm-1.371 0c-0.14281 0-0.27134-0.0426-0.38559-0.12788-0.08569-0.11367-0.12853-0.24154-0.12853-0.38363 0-0.11367 0.04284-0.22734 0.12853-0.34101 0.11425-0.11367 0.24278-0.17051 0.38559-0.17051 0.11425 0 0.2285 0.0568 0.34275 0.17051 0.11425 0.11367 0.17137 0.22734 0.17137 0.34101 0 0.14209-0.05712 0.26996-0.17137 0.38363-0.11425 0.0853-0.2285 0.12788-0.34275 0.12788zm-1.371 0c-0.14281 0-0.27134-0.0426-0.38559-0.12788-0.08569-0.11367-0.12853-0.24154-0.12853-0.38363 0-0.11367 0.04284-0.22734 0.12853-0.34101 0.11425-0.11367 0.24278-0.17051 0.38559-0.17051 0.11425 0 0.2285 0.0568 0.34275 0.17051 0.11425 0.11367 0.17137 0.22734 0.17137 0.34101 0 0.14209-0.05712 0.26996-0.17137 0.38363-0.11425 0.0853-0.2285 0.12788-0.34275 0.12788zm-1.371 0c-0.14281 0-0.27134-0.0426-0.38559-0.12788-0.08569-0.11367-0.12853-0.24154-0.12853-0.38363 0-0.11367 0.04284-0.22734 0.12853-0.34101 0.11425-0.11367 0.24278-0.17051 0.38559-0.17051 0.11425 0 0.2285 0.0568 0.34275 0.17051 0.11425 0.11367 0.17138 0.22734 0.17138 0.34101 0 0.14209-0.05712 0.26996-0.17138 0.38363-0.11425 0.0853-0.2285 0.12788-0.34275 0.12788zm-1.371 0c-0.14281 0-0.27134-0.0426-0.38559-0.12788-0.08569-0.11367-0.12853-0.24154-0.12853-0.38363 0-0.11367 0.04284-0.22734 0.12853-0.34101 0.11425-0.11367 0.24278-0.17051 0.38559-0.17051 0.11425 0 0.2285 0.0568 0.34275 0.17051 0.11425 0.11367 0.17137 0.22734 0.17137 0.34101 0 0.14209-0.05712 0.26996-0.17137 0.38363-0.11425 0.0853-0.2285 0.12788-0.34275 0.12788zm15.081 1.364c-0.14281 0-0.27134-0.0426-0.38559-0.12788-0.08569-0.11367-0.12853-0.24155-0.12853-0.38363 0-0.11367 0.04284-0.22734 0.12853-0.34101 0.11425-0.11367 0.24278-0.17051 0.38559-0.17051 0.11425 0 0.2285 0.0568 0.34275 0.17051 0.11425 0.11367 0.17137 0.22734 0.17137 0.34101 0 0.14208-0.05712 0.26996-0.17137 0.38363-0.11425 0.0853-0.2285 0.12788-0.34275 0.12788zm-1.371 0c-0.14281 0-0.27134-0.0426-0.38559-0.12788-0.08569-0.11367-0.12853-0.24155-0.12853-0.38363 0-0.11367 0.04284-0.22734 0.12853-0.34101 0.11425-0.11367 0.24278-0.17051 0.38559-0.17051 0.11425 0 0.2285 0.0568 0.34275 0.17051 0.11425 0.11367 0.17137 0.22734 0.17137 0.34101 0 0.14208-0.05712 0.26996-0.17137 0.38363-0.11425 0.0853-0.2285 0.12788-0.34275 0.12788zm-1.371 0c-0.14281 0-0.27134-0.0426-0.38559-0.12788-0.08569-0.11367-0.12853-0.24155-0.12853-0.38363 0-0.11367 0.04284-0.22734 0.12853-0.34101 0.11425-0.11367 0.24278-0.17051 0.38559-0.17051 0.11425 0 0.2285 0.0568 0.34275 0.17051 0.11425 0.11367 0.17137 0.22734 0.17137 0.34101 0 0.14208-0.05712 0.26996-0.17137 0.38363-0.11425 0.0853-0.2285 0.12788-0.34275 0.12788zm-1.371 0c-0.14281 0-0.27134-0.0426-0.38559-0.12788-0.08569-0.11367-0.12853-0.24155-0.12853-0.38363 0-0.11367 0.04284-0.22734 0.12853-0.34101 0.11425-0.11367 0.24278-0.17051 0.38559-0.17051 0.11425 0 0.2285 0.0568 0.34275 0.17051 0.11425 0.11367 0.17138 0.22734 0.17138 0.34101 0 0.14208-0.05713 0.26996-0.17138 0.38363-0.11425 0.0853-0.2285 0.12788-0.34275 0.12788zm-1.371 0c-0.14281 0-0.27134-0.0426-0.38559-0.12788-0.08569-0.11367-0.12853-0.24155-0.12853-0.38363 0-0.11367 0.04284-0.22734 0.12853-0.34101 0.11425-0.11367 0.24278-0.17051 0.38559-0.17051 0.11425 0 0.2285 0.0568 0.34275 0.17051 0.11425 0.11367 0.17137 0.22734 0.17137 0.34101 0 0.14208-0.05712 0.26996-0.17137 0.38363-0.11425 0.0853-0.2285 0.12788-0.34275 0.12788zm-1.371 0c-0.14281 0-0.27134-0.0426-0.38559-0.12788-0.08569-0.11367-0.12853-0.24155-0.12853-0.38363 0-0.11367 0.04284-0.22734 0.12853-0.34101 0.11425-0.11367 0.24278-0.17051 0.38559-0.17051 0.11425 0 0.2285 0.0568 0.34275 0.17051 0.11425 0.11367 0.17138 0.22734 0.17138 0.34101 0 0.14208-0.05712 0.26996-0.17138 0.38363-0.11425 0.0853-0.2285 0.12788-0.34275 0.12788zm-1.371 0c-0.14281 0-0.27134-0.0426-0.38559-0.12788-0.08569-0.11367-0.12853-0.24155-0.12853-0.38363 0-0.11367 0.04284-0.22734 0.12853-0.34101 0.11425-0.11367 0.24278-0.17051 0.38559-0.17051 0.11425 0 0.2285 0.0568 0.34275 0.17051 0.11425 0.11367 0.17137 0.22734 0.17137 0.34101 0 0.14208-0.05712 0.26996-0.17137 0.38363-0.11425 0.0853-0.2285 0.12788-0.34275 0.12788zm-1.371 0c-0.14281 0-0.27134-0.0426-0.38559-0.12788-0.08569-0.11367-0.12853-0.24155-0.12853-0.38363 0-0.11367 0.04284-0.22734 0.12853-0.34101 0.11425-0.11367 0.24278-0.17051 0.38559-0.17051 0.11425 0 0.2285 0.0568 0.34275 0.17051 0.11425 0.11367 0.17137 0.22734 0.17137 0.34101 0 0.14208-0.05712 0.26996-0.17137 0.38363-0.11425 0.0853-0.2285 0.12788-0.34275 0.12788zm-1.371 0c-0.14281 0-0.27134-0.0426-0.38559-0.12788-0.08569-0.11367-0.12853-0.24155-0.12853-0.38363 0-0.11367 0.04284-0.22734 0.12853-0.34101 0.11425-0.11367 0.24278-0.17051 0.38559-0.17051 0.11425 0 0.2285 0.0568 0.34275 0.17051 0.11425 0.11367 0.17137 0.22734 0.17137 0.34101 0 0.14208-0.05712 0.26996-0.17137 0.38363-0.11425 0.0853-0.2285 0.12788-0.34275 0.12788zm-1.371 0c-0.14281 0-0.27134-0.0426-0.38559-0.12788-0.08569-0.11367-0.12853-0.24155-0.12853-0.38363 0-0.11367 0.04284-0.22734 0.12853-0.34101 0.11425-0.11367 0.24278-0.17051 0.38559-0.17051 0.11425 0 0.2285 0.0568 0.34275 0.17051 0.11425 0.11367 0.17137 0.22734 0.17137 0.34101 0 0.14208-0.05712 0.26996-0.17137 0.38363-0.11425 0.0853-0.2285 0.12788-0.34275 0.12788zm-1.371 0c-0.14281 0-0.27134-0.0426-0.38559-0.12788-0.08569-0.11367-0.12853-0.24155-0.12853-0.38363 0-0.11367 0.04284-0.22734 0.12853-0.34101 0.11425-0.11367 0.24278-0.17051 0.38559-0.17051 0.11425 0 0.2285 0.0568 0.34275 0.17051 0.11425 0.11367 0.17138 0.22734 0.17138 0.34101 0 0.14208-0.05712 0.26996-0.17138 0.38363-0.11425 0.0853-0.2285 0.12788-0.34275 0.12788zm-1.371 0c-0.14281 0-0.27134-0.0426-0.38559-0.12788-0.08569-0.11367-0.12853-0.24155-0.12853-0.38363 0-0.11367 0.04284-0.22734 0.12853-0.34101 0.11425-0.11367 0.24278-0.17051 0.38559-0.17051 0.11425 0 0.2285 0.0568 0.34275 0.17051 0.11425 0.11367 0.17137 0.22734 0.17137 0.34101 0 0.14208-0.05712 0.26996-0.17137 0.38363-0.11425 0.0853-0.2285 0.12788-0.34275 0.12788zm16.452 1.364c-0.14281 0-0.27134-0.0426-0.38559-0.12788-0.08569-0.11367-0.12853-0.24155-0.12853-0.38364 0-0.11367 0.04284-0.22734 0.12853-0.34101 0.11425-0.11367 0.24278-0.1705 0.38559-0.1705 0.11425 0 0.2285 0.0568 0.34275 0.1705 0.11425 0.11367 0.17137 0.22734 0.17137 0.34101 0 0.14209-0.05712 0.26997-0.17137 0.38364-0.11425 0.0853-0.2285 0.12788-0.34275 0.12788zm-1.371 0c-0.14281 0-0.27134-0.0426-0.38559-0.12788-0.08569-0.11367-0.12853-0.24155-0.12853-0.38364 0-0.11367 0.04284-0.22734 0.12853-0.34101 0.11425-0.11367 0.24278-0.1705 0.38559-0.1705 0.11425 0 0.2285 0.0568 0.34275 0.1705 0.11425 0.11367 0.17137 0.22734 0.17137 0.34101 0 0.14209-0.05712 0.26997-0.17137 0.38364-0.11425 0.0853-0.2285 0.12788-0.34275 0.12788zm-1.371 0c-0.14281 0-0.27134-0.0426-0.38559-0.12788-0.08569-0.11367-0.12853-0.24155-0.12853-0.38364 0-0.11367 0.04284-0.22734 0.12853-0.34101 0.11425-0.11367 0.24278-0.1705 0.38559-0.1705 0.11425 0 0.2285 0.0568 0.34275 0.1705 0.11425 0.11367 0.17137 0.22734 0.17137 0.34101 0 0.14209-0.05712 0.26997-0.17137 0.38364-0.11425 0.0853-0.2285 0.12788-0.34275 0.12788zm-1.371 0c-0.14281 0-0.27134-0.0426-0.38559-0.12788-0.08569-0.11367-0.12853-0.24155-0.12853-0.38364 0-0.11367 0.04284-0.22734 0.12853-0.34101 0.11425-0.11367 0.24278-0.1705 0.38559-0.1705 0.11425 0 0.2285 0.0568 0.34275 0.1705 0.11425 0.11367 0.17137 0.22734 0.17137 0.34101 0 0.14209-0.05712 0.26997-0.17137 0.38364-0.11425 0.0853-0.2285 0.12788-0.34275 0.12788zm-1.371 0c-0.14281 0-0.27134-0.0426-0.38559-0.12788-0.08569-0.11367-0.12853-0.24155-0.12853-0.38364 0-0.11367 0.04284-0.22734 0.12853-0.34101 0.11425-0.11367 0.24278-0.1705 0.38559-0.1705 0.11425 0 0.2285 0.0568 0.34275 0.1705 0.11425 0.11367 0.17138 0.22734 0.17138 0.34101 0 0.14209-0.05713 0.26997-0.17138 0.38364-0.11425 0.0853-0.2285 0.12788-0.34275 0.12788zm-1.371 0c-0.14281 0-0.27134-0.0426-0.38559-0.12788-0.08569-0.11367-0.12853-0.24155-0.12853-0.38364 0-0.11367 0.04284-0.22734 0.12853-0.34101 0.11425-0.11367 0.24278-0.1705 0.38559-0.1705 0.11425 0 0.2285 0.0568 0.34275 0.1705 0.11425 0.11367 0.17137 0.22734 0.17137 0.34101 0 0.14209-0.05712 0.26997-0.17137 0.38364-0.11425 0.0853-0.2285 0.12788-0.34275 0.12788zm-1.371 0c-0.14281 0-0.27134-0.0426-0.38559-0.12788-0.08569-0.11367-0.12853-0.24155-0.12853-0.38364 0-0.11367 0.04284-0.22734 0.12853-0.34101 0.11425-0.11367 0.24278-0.1705 0.38559-0.1705 0.11425 0 0.2285 0.0568 0.34275 0.1705 0.11425 0.11367 0.17138 0.22734 0.17138 0.34101 0 0.14209-0.05712 0.26997-0.17138 0.38364-0.11425 0.0853-0.2285 0.12788-0.34275 0.12788zm-1.371 0c-0.14281 0-0.27134-0.0426-0.38559-0.12788-0.08569-0.11367-0.12853-0.24155-0.12853-0.38364 0-0.11367 0.04284-0.22734 0.12853-0.34101 0.11425-0.11367 0.24278-0.1705 0.38559-0.1705 0.11425 0 0.2285 0.0568 0.34275 0.1705 0.11425 0.11367 0.17137 0.22734 0.17137 0.34101 0 0.14209-0.05712 0.26997-0.17137 0.38364-0.11425 0.0853-0.2285 0.12788-0.34275 0.12788zm-1.371 0c-0.14281 0-0.27134-0.0426-0.38559-0.12788-0.08569-0.11367-0.12853-0.24155-0.12853-0.38364 0-0.11367 0.04284-0.22734 0.12853-0.34101 0.11425-0.11367 0.24278-0.1705 0.38559-0.1705 0.11425 0 0.2285 0.0568 0.34275 0.1705 0.11425 0.11367 0.17137 0.22734 0.17137 0.34101 0 0.14209-0.05712 0.26997-0.17137 0.38364-0.11425 0.0853-0.2285 0.12788-0.34275 0.12788zm-1.371 0c-0.14281 0-0.27134-0.0426-0.38559-0.12788-0.08569-0.11367-0.12853-0.24155-0.12853-0.38364 0-0.11367 0.04284-0.22734 0.12853-0.34101 0.11425-0.11367 0.24278-0.1705 0.38559-0.1705 0.11425 0 0.2285 0.0568 0.34275 0.1705 0.11425 0.11367 0.17137 0.22734 0.17137 0.34101 0 0.14209-0.05712 0.26997-0.17137 0.38364-0.11425 0.0853-0.2285 0.12788-0.34275 0.12788zm-1.371 0c-0.14281 0-0.27134-0.0426-0.38559-0.12788-0.08569-0.11367-0.12853-0.24155-0.12853-0.38364 0-0.11367 0.04284-0.22734 0.12853-0.34101 0.11425-0.11367 0.24278-0.1705 0.38559-0.1705 0.11425 0 0.2285 0.0568 0.34275 0.1705 0.11425 0.11367 0.17137 0.22734 0.17137 0.34101 0 0.14209-0.05712 0.26997-0.17137 0.38364-0.11425 0.0853-0.2285 0.12788-0.34275 0.12788zm-1.371 0c-0.14281 0-0.27134-0.0426-0.38559-0.12788-0.08569-0.11367-0.12853-0.24155-0.12853-0.38364 0-0.11367 0.04284-0.22734 0.12853-0.34101 0.11425-0.11367 0.24278-0.1705 0.38559-0.1705 0.11425 0 0.2285 0.0568 0.34275 0.1705 0.11425 0.11367 0.17138 0.22734 0.17138 0.34101 0 0.14209-0.05712 0.26997-0.17138 0.38364-0.11425 0.0853-0.2285 0.12788-0.34275 0.12788zm-1.371 0c-0.14281 0-0.27134-0.0426-0.38559-0.12788-0.08569-0.11367-0.12853-0.24155-0.12853-0.38364 0-0.11367 0.04284-0.22734 0.12853-0.34101 0.11425-0.11367 0.24278-0.1705 0.38559-0.1705 0.11425 0 0.2285 0.0568 0.34275 0.1705 0.11425 0.11367 0.17137 0.22734 0.17137 0.34101 0 0.14209-0.05712 0.26997-0.17137 0.38364-0.11425 0.0853-0.2285 0.12788-0.34275 0.12788zm16.452 1.364c-0.14281 0-0.27134-0.0426-0.38559-0.12788-0.08569-0.11367-0.12853-0.24154-0.12853-0.38363 0-0.11367 0.04284-0.22734 0.12853-0.34101 0.11425-0.11367 0.24278-0.17051 0.38559-0.17051 0.11425 0 0.2285 0.0568 0.34275 0.17051 0.11425 0.11367 0.17137 0.22734 0.17137 0.34101 0 0.14209-0.05712 0.26996-0.17137 0.38363-0.11425 0.0853-0.2285 0.12788-0.34275 0.12788zm-1.371 0c-0.14281 0-0.27134-0.0426-0.38559-0.12788-0.08569-0.11367-0.12853-0.24154-0.12853-0.38363 0-0.11367 0.04284-0.22734 0.12853-0.34101 0.11425-0.11367 0.24278-0.17051 0.38559-0.17051 0.11425 0 0.2285 0.0568 0.34275 0.17051 0.11425 0.11367 0.17137 0.22734 0.17137 0.34101 0 0.14209-0.05712 0.26996-0.17137 0.38363-0.11425 0.0853-0.2285 0.12788-0.34275 0.12788zm-1.371 0c-0.14281 0-0.27134-0.0426-0.38559-0.12788-0.08569-0.11367-0.12853-0.24154-0.12853-0.38363 0-0.11367 0.04284-0.22734 0.12853-0.34101 0.11425-0.11367 0.24278-0.17051 0.38559-0.17051 0.11425 0 0.2285 0.0568 0.34275 0.17051 0.11425 0.11367 0.17137 0.22734 0.17137 0.34101 0 0.14209-0.05712 0.26996-0.17137 0.38363-0.11425 0.0853-0.2285 0.12788-0.34275 0.12788zm-10.968 0c-0.14281 0-0.27134-0.0426-0.38559-0.12788-0.08569-0.11367-0.12853-0.24154-0.12853-0.38363 0-0.11367 0.04284-0.22734 0.12853-0.34101 0.11425-0.11367 0.24278-0.17051 0.38559-0.17051 0.11425 0 0.2285 0.0568 0.34275 0.17051 0.11425 0.11367 0.17137 0.22734 0.17137 0.34101 0 0.14209-0.05712 0.26996-0.17137 0.38363-0.11425 0.0853-0.2285 0.12788-0.34275 0.12788zm-1.371 0c-0.14281 0-0.27134-0.0426-0.38559-0.12788-0.08569-0.11367-0.12853-0.24154-0.12853-0.38363 0-0.11367 0.04284-0.22734 0.12853-0.34101 0.11425-0.11367 0.24278-0.17051 0.38559-0.17051 0.11425 0 0.2285 0.0568 0.34275 0.17051 0.11425 0.11367 0.17138 0.22734 0.17138 0.34101 0 0.14209-0.05712 0.26996-0.17138 0.38363-0.11425 0.0853-0.2285 0.12788-0.34275 0.12788zm-1.371 0c-0.14281 0-0.27134-0.0426-0.38559-0.12788-0.08569-0.11367-0.12853-0.24154-0.12853-0.38363 0-0.11367 0.04284-0.22734 0.12853-0.34101 0.11425-0.11367 0.24278-0.17051 0.38559-0.17051 0.11425 0 0.2285 0.0568 0.34275 0.17051 0.11425 0.11367 0.17137 0.22734 0.17137 0.34101 0 0.14209-0.05712 0.26996-0.17137 0.38363-0.11425 0.0853-0.2285 0.12788-0.34275 0.12788zm16.452 1.364c-0.14281 0-0.27134-0.0426-0.38559-0.12788-0.08569-0.11367-0.12853-0.24154-0.12853-0.38363 0-0.11367 0.04284-0.22735 0.12853-0.34102 0.11425-0.11367 0.24278-0.1705 0.38559-0.1705 0.11425 0 0.2285 0.0568 0.34275 0.1705 0.11425 0.11367 0.17137 0.22735 0.17137 0.34102 0 0.14209-0.05712 0.26996-0.17137 0.38363-0.11425 0.0853-0.2285 0.12788-0.34275 0.12788zm-1.371 0c-0.14281 0-0.27134-0.0426-0.38559-0.12788-0.08569-0.11367-0.12853-0.24154-0.12853-0.38363 0-0.11367 0.04284-0.22735 0.12853-0.34102 0.11425-0.11367 0.24278-0.1705 0.38559-0.1705 0.11425 0 0.2285 0.0568 0.34275 0.1705 0.11425 0.11367 0.17137 0.22735 0.17137 0.34102 0 0.14209-0.05712 0.26996-0.17137 0.38363-0.11425 0.0853-0.2285 0.12788-0.34275 0.12788zm-1.371 0c-0.14281 0-0.27134-0.0426-0.38559-0.12788-0.08569-0.11367-0.12853-0.24154-0.12853-0.38363 0-0.11367 0.04284-0.22735 0.12853-0.34102 0.11425-0.11367 0.24278-0.1705 0.38559-0.1705 0.11425 0 0.2285 0.0568 0.34275 0.1705 0.11425 0.11367 0.17137 0.22735 0.17137 0.34102 0 0.14209-0.05712 0.26996-0.17137 0.38363-0.11425 0.0853-0.2285 0.12788-0.34275 0.12788zm-10.968 0c-0.14281 0-0.27134-0.0426-0.38559-0.12788-0.08569-0.11367-0.12853-0.24154-0.12853-0.38363 0-0.11367 0.04284-0.22735 0.12853-0.34102 0.11425-0.11367 0.24278-0.1705 0.38559-0.1705 0.11425 0 0.2285 0.0568 0.34275 0.1705 0.11425 0.11367 0.17137 0.22735 0.17137 0.34102 0 0.14209-0.05712 0.26996-0.17137 0.38363-0.11425 0.0853-0.2285 0.12788-0.34275 0.12788zm-1.371 0c-0.14281 0-0.27134-0.0426-0.38559-0.12788-0.08569-0.11367-0.12853-0.24154-0.12853-0.38363 0-0.11367 0.04284-0.22735 0.12853-0.34102 0.11425-0.11367 0.24278-0.1705 0.38559-0.1705 0.11425 0 0.2285 0.0568 0.34275 0.1705 0.11425 0.11367 0.17138 0.22735 0.17138 0.34102 0 0.14209-0.05712 0.26996-0.17138 0.38363-0.11425 0.0853-0.2285 0.12788-0.34275 0.12788zm-1.371 0c-0.14281 0-0.27134-0.0426-0.38559-0.12788-0.08569-0.11367-0.12853-0.24154-0.12853-0.38363 0-0.11367 0.04284-0.22735 0.12853-0.34102 0.11425-0.11367 0.24278-0.1705 0.38559-0.1705 0.11425 0 0.2285 0.0568 0.34275 0.1705 0.11425 0.11367 0.17137 0.22735 0.17137 0.34102 0 0.14209-0.05712 0.26996-0.17137 0.38363-0.11425 0.0853-0.2285 0.12788-0.34275 0.12788zm16.452 1.364c-0.14281 0-0.27134-0.0426-0.38559-0.12788-0.08569-0.11367-0.12853-0.24155-0.12853-0.38364 0-0.11367 0.04284-0.22734 0.12853-0.34101 0.11425-0.11367 0.24278-0.1705 0.38559-0.1705 0.11425 0 0.2285 0.0568 0.34275 0.1705 0.11425 0.11367 0.17137 0.22734 0.17137 0.34101 0 0.14209-0.05712 0.26997-0.17137 0.38364-0.11425 0.0852-0.2285 0.12788-0.34275 0.12788zm-1.371 0c-0.14281 0-0.27134-0.0426-0.38559-0.12788-0.08569-0.11367-0.12853-0.24155-0.12853-0.38364 0-0.11367 0.04284-0.22734 0.12853-0.34101 0.11425-0.11367 0.24278-0.1705 0.38559-0.1705 0.11425 0 0.2285 0.0568 0.34275 0.1705 0.11425 0.11367 0.17137 0.22734 0.17137 0.34101 0 0.14209-0.05712 0.26997-0.17137 0.38364-0.11425 0.0852-0.2285 0.12788-0.34275 0.12788zm-1.371 0c-0.14281 0-0.27134-0.0426-0.38559-0.12788-0.08569-0.11367-0.12853-0.24155-0.12853-0.38364 0-0.11367 0.04284-0.22734 0.12853-0.34101 0.11425-0.11367 0.24278-0.1705 0.38559-0.1705 0.11425 0 0.2285 0.0568 0.34275 0.1705 0.11425 0.11367 0.17137 0.22734 0.17137 0.34101 0 0.14209-0.05712 0.26997-0.17137 0.38364-0.11425 0.0852-0.2285 0.12788-0.34275 0.12788zm-10.968 0c-0.14281 0-0.27134-0.0426-0.38559-0.12788-0.08569-0.11367-0.12853-0.24155-0.12853-0.38364 0-0.11367 0.04284-0.22734 0.12853-0.34101 0.11425-0.11367 0.24278-0.1705 0.38559-0.1705 0.11425 0 0.2285 0.0568 0.34275 0.1705 0.11425 0.11367 0.17137 0.22734 0.17137 0.34101 0 0.14209-0.05712 0.26997-0.17137 0.38364-0.11425 0.0852-0.2285 0.12788-0.34275 0.12788zm-1.371 0c-0.14281 0-0.27134-0.0426-0.38559-0.12788-0.08569-0.11367-0.12853-0.24155-0.12853-0.38364 0-0.11367 0.04284-0.22734 0.12853-0.34101 0.11425-0.11367 0.24278-0.1705 0.38559-0.1705 0.11425 0 0.2285 0.0568 0.34275 0.1705 0.11425 0.11367 0.17138 0.22734 0.17138 0.34101 0 0.14209-0.05712 0.26997-0.17138 0.38364-0.11425 0.0852-0.2285 0.12788-0.34275 0.12788zm-1.371 0c-0.14281 0-0.27134-0.0426-0.38559-0.12788-0.08569-0.11367-0.12853-0.24155-0.12853-0.38364 0-0.11367 0.04284-0.22734 0.12853-0.34101 0.11425-0.11367 0.24278-0.1705 0.38559-0.1705 0.11425 0 0.2285 0.0568 0.34275 0.1705 0.11425 0.11367 0.17137 0.22734 0.17137 0.34101 0 0.14209-0.05712 0.26997-0.17137 0.38364-0.11425 0.0852-0.2285 0.12788-0.34275 0.12788zm16.452 1.364c-0.14281 0-0.27134-0.0426-0.38559-0.12788-0.08569-0.11367-0.12853-0.24154-0.12853-0.38363 0-0.11367 0.04284-0.22734 0.12853-0.34101 0.11425-0.11367 0.24278-0.1705 0.38559-0.1705 0.11425 0 0.2285 0.0568 0.34275 0.1705 0.11425 0.11367 0.17137 0.22734 0.17137 0.34101 0 0.14209-0.05712 0.26996-0.17137 0.38363-0.11425 0.0853-0.2285 0.12788-0.34275 0.12788zm-1.371 0c-0.14281 0-0.27134-0.0426-0.38559-0.12788-0.08569-0.11367-0.12853-0.24154-0.12853-0.38363 0-0.11367 0.04284-0.22734 0.12853-0.34101 0.11425-0.11367 0.24278-0.1705 0.38559-0.1705 0.11425 0 0.2285 0.0568 0.34275 0.1705 0.11425 0.11367 0.17137 0.22734 0.17137 0.34101 0 0.14209-0.05712 0.26996-0.17137 0.38363-0.11425 0.0853-0.2285 0.12788-0.34275 0.12788zm-1.371 0c-0.14281 0-0.27134-0.0426-0.38559-0.12788-0.08569-0.11367-0.12853-0.24154-0.12853-0.38363 0-0.11367 0.04284-0.22734 0.12853-0.34101 0.11425-0.11367 0.24278-0.1705 0.38559-0.1705 0.11425 0 0.2285 0.0568 0.34275 0.1705 0.11425 0.11367 0.17137 0.22734 0.17137 0.34101 0 0.14209-0.05712 0.26996-0.17137 0.38363-0.11425 0.0853-0.2285 0.12788-0.34275 0.12788zm-10.968 0c-0.14281 0-0.27134-0.0426-0.38559-0.12788-0.08569-0.11367-0.12853-0.24154-0.12853-0.38363 0-0.11367 0.04284-0.22734 0.12853-0.34101 0.11425-0.11367 0.24278-0.1705 0.38559-0.1705 0.11425 0 0.2285 0.0568 0.34275 0.1705 0.11425 0.11367 0.17137 0.22734 0.17137 0.34101 0 0.14209-0.05712 0.26996-0.17137 0.38363-0.11425 0.0853-0.2285 0.12788-0.34275 0.12788zm-1.371 0c-0.14281 0-0.27134-0.0426-0.38559-0.12788-0.08569-0.11367-0.12853-0.24154-0.12853-0.38363 0-0.11367 0.04284-0.22734 0.12853-0.34101 0.11425-0.11367 0.24278-0.1705 0.38559-0.1705 0.11425 0 0.2285 0.0568 0.34275 0.1705 0.11425 0.11367 0.17138 0.22734 0.17138 0.34101 0 0.14209-0.05712 0.26996-0.17138 0.38363-0.11425 0.0853-0.2285 0.12788-0.34275 0.12788zm-1.371 0c-0.14281 0-0.27134-0.0426-0.38559-0.12788-0.08569-0.11367-0.12853-0.24154-0.12853-0.38363 0-0.11367 0.04284-0.22734 0.12853-0.34101 0.11425-0.11367 0.24278-0.1705 0.38559-0.1705 0.11425 0 0.2285 0.0568 0.34275 0.1705 0.11425 0.11367 0.17137 0.22734 0.17137 0.34101 0 0.14209-0.05712 0.26996-0.17137 0.38363-0.11425 0.0853-0.2285 0.12788-0.34275 0.12788zm16.452 1.364c-0.14281 0-0.27134-0.0426-0.38559-0.12788-0.08569-0.11367-0.12853-0.24155-0.12853-0.38364 0-0.11367 0.04284-0.22734 0.12853-0.34101 0.11425-0.11367 0.24278-0.1705 0.38559-0.1705 0.11425 0 0.2285 0.0568 0.34275 0.1705 0.11425 0.11367 0.17137 0.22734 0.17137 0.34101 0 0.14209-0.05712 0.26997-0.17137 0.38364-0.11425 0.0853-0.2285 0.12788-0.34275 0.12788zm-1.371 0c-0.14281 0-0.27134-0.0426-0.38559-0.12788-0.08569-0.11367-0.12853-0.24155-0.12853-0.38364 0-0.11367 0.04284-0.22734 0.12853-0.34101 0.11425-0.11367 0.24278-0.1705 0.38559-0.1705 0.11425 0 0.2285 0.0568 0.34275 0.1705 0.11425 0.11367 0.17137 0.22734 0.17137 0.34101 0 0.14209-0.05712 0.26997-0.17137 0.38364-0.11425 0.0853-0.2285 0.12788-0.34275 0.12788zm-1.371 0c-0.14281 0-0.27134-0.0426-0.38559-0.12788-0.08569-0.11367-0.12853-0.24155-0.12853-0.38364 0-0.11367 0.04284-0.22734 0.12853-0.34101 0.11425-0.11367 0.24278-0.1705 0.38559-0.1705 0.11425 0 0.2285 0.0568 0.34275 0.1705 0.11425 0.11367 0.17137 0.22734 0.17137 0.34101 0 0.14209-0.05712 0.26997-0.17137 0.38364-0.11425 0.0853-0.2285 0.12788-0.34275 0.12788zm-10.968 0c-0.14281 0-0.27134-0.0426-0.38559-0.12788-0.08569-0.11367-0.12853-0.24155-0.12853-0.38364 0-0.11367 0.04284-0.22734 0.12853-0.34101 0.11425-0.11367 0.24278-0.1705 0.38559-0.1705 0.11425 0 0.2285 0.0568 0.34275 0.1705 0.11425 0.11367 0.17137 0.22734 0.17137 0.34101 0 0.14209-0.05712 0.26997-0.17137 0.38364-0.11425 0.0853-0.2285 0.12788-0.34275 0.12788zm-1.371 0c-0.14281 0-0.27134-0.0426-0.38559-0.12788-0.08569-0.11367-0.12853-0.24155-0.12853-0.38364 0-0.11367 0.04284-0.22734 0.12853-0.34101 0.11425-0.11367 0.24278-0.1705 0.38559-0.1705 0.11425 0 0.2285 0.0568 0.34275 0.1705 0.11425 0.11367 0.17138 0.22734 0.17138 0.34101 0 0.14209-0.05712 0.26997-0.17138 0.38364-0.11425 0.0853-0.2285 0.12788-0.34275 0.12788zm-1.371 0c-0.14281 0-0.27134-0.0426-0.38559-0.12788-0.08569-0.11367-0.12853-0.24155-0.12853-0.38364 0-0.11367 0.04284-0.22734 0.12853-0.34101 0.11425-0.11367 0.24278-0.1705 0.38559-0.1705 0.11425 0 0.2285 0.0568 0.34275 0.1705 0.11425 0.11367 0.17137 0.22734 0.17137 0.34101 0 0.14209-0.05712 0.26997-0.17137 0.38364-0.11425 0.0853-0.2285 0.12788-0.34275 0.12788zm16.452 1.364c-0.14281 0-0.27134-0.0426-0.38559-0.12787-0.08569-0.11367-0.12853-0.24155-0.12853-0.38364 0-0.11367 0.04284-0.22734 0.12853-0.34101 0.11425-0.11367 0.24278-0.1705 0.38559-0.1705 0.11425 0 0.2285 0.0568 0.34275 0.1705 0.11425 0.11367 0.17137 0.22734 0.17137 0.34101 0 0.14209-0.05712 0.26997-0.17137 0.38364-0.11425 0.0853-0.2285 0.12787-0.34275 0.12787zm-1.371 0c-0.14281 0-0.27134-0.0426-0.38559-0.12787-0.08569-0.11367-0.12853-0.24155-0.12853-0.38364 0-0.11367 0.04284-0.22734 0.12853-0.34101 0.11425-0.11367 0.24278-0.1705 0.38559-0.1705 0.11425 0 0.2285 0.0568 0.34275 0.1705 0.11425 0.11367 0.17137 0.22734 0.17137 0.34101 0 0.14209-0.05712 0.26997-0.17137 0.38364-0.11425 0.0853-0.2285 0.12787-0.34275 0.12787zm-1.371 0c-0.14281 0-0.27134-0.0426-0.38559-0.12787-0.08569-0.11367-0.12853-0.24155-0.12853-0.38364 0-0.11367 0.04284-0.22734 0.12853-0.34101 0.11425-0.11367 0.24278-0.1705 0.38559-0.1705 0.11425 0 0.2285 0.0568 0.34275 0.1705 0.11425 0.11367 0.17137 0.22734 0.17137 0.34101 0 0.14209-0.05712 0.26997-0.17137 0.38364-0.11425 0.0853-0.2285 0.12787-0.34275 0.12787zm-10.968 0c-0.14281 0-0.27134-0.0426-0.38559-0.12787-0.08569-0.11367-0.12853-0.24155-0.12853-0.38364 0-0.11367 0.04284-0.22734 0.12853-0.34101 0.11425-0.11367 0.24278-0.1705 0.38559-0.1705 0.11425 0 0.2285 0.0568 0.34275 0.1705 0.11425 0.11367 0.17137 0.22734 0.17137 0.34101 0 0.14209-0.05712 0.26997-0.17137 0.38364-0.11425 0.0853-0.2285 0.12787-0.34275 0.12787zm-1.371 0c-0.14281 0-0.27134-0.0426-0.38559-0.12787-0.08569-0.11367-0.12853-0.24155-0.12853-0.38364 0-0.11367 0.04284-0.22734 0.12853-0.34101 0.11425-0.11367 0.24278-0.1705 0.38559-0.1705 0.11425 0 0.2285 0.0568 0.34275 0.1705 0.11425 0.11367 0.17138 0.22734 0.17138 0.34101 0 0.14209-0.05712 0.26997-0.17138 0.38364-0.11425 0.0853-0.2285 0.12787-0.34275 0.12787zm-1.371 0c-0.14281 0-0.27134-0.0426-0.38559-0.12787-0.08569-0.11367-0.12853-0.24155-0.12853-0.38364 0-0.11367 0.04284-0.22734 0.12853-0.34101 0.11425-0.11367 0.24278-0.1705 0.38559-0.1705 0.11425 0 0.2285 0.0568 0.34275 0.1705 0.11425 0.11367 0.17137 0.22734 0.17137 0.34101 0 0.14209-0.05712 0.26997-0.17137 0.38364-0.11425 0.0853-0.2285 0.12787-0.34275 0.12787zm16.452 1.364c-0.14281 0-0.27134-0.0426-0.38559-0.12788-0.08569-0.11367-0.12853-0.24154-0.12853-0.38363 0-0.11367 0.04284-0.22734 0.12853-0.34101 0.11425-0.11367 0.24278-0.17051 0.38559-0.17051 0.11425 0 0.2285 0.0568 0.34275 0.17051 0.11425 0.11367 0.17137 0.22734 0.17137 0.34101 0 0.14209-0.05712 0.26996-0.17137 0.38363-0.11425 0.0853-0.2285 0.12788-0.34275 0.12788zm-1.371 0c-0.14281 0-0.27134-0.0426-0.38559-0.12788-0.08569-0.11367-0.12853-0.24154-0.12853-0.38363 0-0.11367 0.04284-0.22734 0.12853-0.34101 0.11425-0.11367 0.24278-0.17051 0.38559-0.17051 0.11425 0 0.2285 0.0568 0.34275 0.17051 0.11425 0.11367 0.17137 0.22734 0.17137 0.34101 0 0.14209-0.05712 0.26996-0.17137 0.38363-0.11425 0.0853-0.2285 0.12788-0.34275 0.12788zm-1.371 0c-0.14281 0-0.27134-0.0426-0.38559-0.12788-0.08569-0.11367-0.12853-0.24154-0.12853-0.38363 0-0.11367 0.04284-0.22734 0.12853-0.34101 0.11425-0.11367 0.24278-0.17051 0.38559-0.17051 0.11425 0 0.2285 0.0568 0.34275 0.17051 0.11425 0.11367 0.17137 0.22734 0.17137 0.34101 0 0.14209-0.05712 0.26996-0.17137 0.38363-0.11425 0.0853-0.2285 0.12788-0.34275 0.12788zm-1.371 0c-0.14281 0-0.27134-0.0426-0.38559-0.12788-0.08569-0.11367-0.12853-0.24154-0.12853-0.38363 0-0.11367 0.04284-0.22734 0.12853-0.34101 0.11425-0.11367 0.24278-0.17051 0.38559-0.17051 0.11425 0 0.2285 0.0568 0.34275 0.17051 0.11425 0.11367 0.17137 0.22734 0.17137 0.34101 0 0.14209-0.05712 0.26996-0.17137 0.38363-0.11425 0.0853-0.2285 0.12788-0.34275 0.12788zm-1.371 0c-0.14281 0-0.27134-0.0426-0.38559-0.12788-0.08569-0.11367-0.12853-0.24154-0.12853-0.38363 0-0.11367 0.04284-0.22734 0.12853-0.34101 0.11425-0.11367 0.24278-0.17051 0.38559-0.17051 0.11425 0 0.2285 0.0568 0.34275 0.17051 0.11425 0.11367 0.17138 0.22734 0.17138 0.34101 0 0.14209-0.05713 0.26996-0.17138 0.38363-0.11425 0.0853-0.2285 0.12788-0.34275 0.12788zm-1.371 0c-0.14281 0-0.27134-0.0426-0.38559-0.12788-0.08569-0.11367-0.12853-0.24154-0.12853-0.38363 0-0.11367 0.04284-0.22734 0.12853-0.34101 0.11425-0.11367 0.24278-0.17051 0.38559-0.17051 0.11425 0 0.2285 0.0568 0.34275 0.17051 0.11425 0.11367 0.17137 0.22734 0.17137 0.34101 0 0.14209-0.05712 0.26996-0.17137 0.38363-0.11425 0.0853-0.2285 0.12788-0.34275 0.12788zm-1.371 0c-0.14281 0-0.27134-0.0426-0.38559-0.12788-0.08569-0.11367-0.12853-0.24154-0.12853-0.38363 0-0.11367 0.04284-0.22734 0.12853-0.34101 0.11425-0.11367 0.24278-0.17051 0.38559-0.17051 0.11425 0 0.2285 0.0568 0.34275 0.17051 0.11425 0.11367 0.17138 0.22734 0.17138 0.34101 0 0.14209-0.05712 0.26996-0.17138 0.38363-0.11425 0.0853-0.2285 0.12788-0.34275 0.12788zm-1.371 0c-0.14281 0-0.27134-0.0426-0.38559-0.12788-0.08569-0.11367-0.12853-0.24154-0.12853-0.38363 0-0.11367 0.04284-0.22734 0.12853-0.34101 0.11425-0.11367 0.24278-0.17051 0.38559-0.17051 0.11425 0 0.2285 0.0568 0.34275 0.17051 0.11425 0.11367 0.17137 0.22734 0.17137 0.34101 0 0.14209-0.05712 0.26996-0.17137 0.38363-0.11425 0.0853-0.2285 0.12788-0.34275 0.12788zm-1.371 0c-0.14281 0-0.27134-0.0426-0.38559-0.12788-0.08569-0.11367-0.12853-0.24154-0.12853-0.38363 0-0.11367 0.04284-0.22734 0.12853-0.34101 0.11425-0.11367 0.24278-0.17051 0.38559-0.17051 0.11425 0 0.2285 0.0568 0.34275 0.17051 0.11425 0.11367 0.17137 0.22734 0.17137 0.34101 0 0.14209-0.05712 0.26996-0.17137 0.38363-0.11425 0.0853-0.2285 0.12788-0.34275 0.12788zm-1.371 0c-0.14281 0-0.27134-0.0426-0.38559-0.12788-0.08569-0.11367-0.12853-0.24154-0.12853-0.38363 0-0.11367 0.04284-0.22734 0.12853-0.34101 0.11425-0.11367 0.24278-0.17051 0.38559-0.17051 0.11425 0 0.2285 0.0568 0.34275 0.17051 0.11425 0.11367 0.17137 0.22734 0.17137 0.34101 0 0.14209-0.05712 0.26996-0.17137 0.38363-0.11425 0.0853-0.2285 0.12788-0.34275 0.12788zm-1.371 0c-0.14281 0-0.27134-0.0426-0.38559-0.12788-0.08569-0.11367-0.12853-0.24154-0.12853-0.38363 0-0.11367 0.04284-0.22734 0.12853-0.34101 0.11425-0.11367 0.24278-0.17051 0.38559-0.17051 0.11425 0 0.2285 0.0568 0.34275 0.17051 0.11425 0.11367 0.17137 0.22734 0.17137 0.34101 0 0.14209-0.05712 0.26996-0.17137 0.38363-0.11425 0.0853-0.2285 0.12788-0.34275 0.12788zm-1.371 0c-0.14281 0-0.27134-0.0426-0.38559-0.12788-0.08569-0.11367-0.12853-0.24154-0.12853-0.38363 0-0.11367 0.04284-0.22734 0.12853-0.34101 0.11425-0.11367 0.24278-0.17051 0.38559-0.17051 0.11425 0 0.2285 0.0568 0.34275 0.17051 0.11425 0.11367 0.17138 0.22734 0.17138 0.34101 0 0.14209-0.05712 0.26996-0.17138 0.38363-0.11425 0.0853-0.2285 0.12788-0.34275 0.12788zm-1.371 0c-0.14281 0-0.27134-0.0426-0.38559-0.12788-0.08569-0.11367-0.12853-0.24154-0.12853-0.38363 0-0.11367 0.04284-0.22734 0.12853-0.34101 0.11425-0.11367 0.24278-0.17051 0.38559-0.17051 0.11425 0 0.2285 0.0568 0.34275 0.17051 0.11425 0.11367 0.17137 0.22734 0.17137 0.34101 0 0.14209-0.05712 0.26996-0.17137 0.38363-0.11425 0.0853-0.2285 0.12788-0.34275 0.12788zm15.081 1.364c-0.14281 0-0.27134-0.0426-0.38559-0.12788-0.08569-0.11367-0.12853-0.24155-0.12853-0.38364 0-0.11367 0.04284-0.22733 0.12853-0.341 0.11425-0.11367 0.24278-0.17051 0.38559-0.17051 0.11425 0 0.2285 0.0568 0.34275 0.17051 0.11425 0.11367 0.17137 0.22733 0.17137 0.341 0 0.14209-0.05712 0.26997-0.17137 0.38364-0.11425 0.0853-0.2285 0.12788-0.34275 0.12788zm-1.371 0c-0.14281 0-0.27134-0.0426-0.38559-0.12788-0.08569-0.11367-0.12853-0.24155-0.12853-0.38364 0-0.11367 0.04284-0.22733 0.12853-0.341 0.11425-0.11367 0.24278-0.17051 0.38559-0.17051 0.11425 0 0.2285 0.0568 0.34275 0.17051 0.11425 0.11367 0.17137 0.22733 0.17137 0.341 0 0.14209-0.05712 0.26997-0.17137 0.38364-0.11425 0.0853-0.2285 0.12788-0.34275 0.12788zm-1.371 0c-0.14281 0-0.27134-0.0426-0.38559-0.12788-0.08569-0.11367-0.12853-0.24155-0.12853-0.38364 0-0.11367 0.04284-0.22733 0.12853-0.341 0.11425-0.11367 0.24278-0.17051 0.38559-0.17051 0.11425 0 0.2285 0.0568 0.34275 0.17051 0.11425 0.11367 0.17137 0.22733 0.17137 0.341 0 0.14209-0.05712 0.26997-0.17137 0.38364-0.11425 0.0853-0.2285 0.12788-0.34275 0.12788zm-1.371 0c-0.14281 0-0.27134-0.0426-0.38559-0.12788-0.08569-0.11367-0.12853-0.24155-0.12853-0.38364 0-0.11367 0.04284-0.22733 0.12853-0.341 0.11425-0.11367 0.24278-0.17051 0.38559-0.17051 0.11425 0 0.2285 0.0568 0.34275 0.17051 0.11425 0.11367 0.17138 0.22733 0.17138 0.341 0 0.14209-0.05713 0.26997-0.17138 0.38364-0.11425 0.0853-0.2285 0.12788-0.34275 0.12788zm-1.371 0c-0.14281 0-0.27134-0.0426-0.38559-0.12788-0.08569-0.11367-0.12853-0.24155-0.12853-0.38364 0-0.11367 0.04284-0.22733 0.12853-0.341 0.11425-0.11367 0.24278-0.17051 0.38559-0.17051 0.11425 0 0.2285 0.0568 0.34275 0.17051 0.11425 0.11367 0.17137 0.22733 0.17137 0.341 0 0.14209-0.05712 0.26997-0.17137 0.38364-0.11425 0.0853-0.2285 0.12788-0.34275 0.12788zm-1.371 0c-0.14281 0-0.27134-0.0426-0.38559-0.12788-0.08569-0.11367-0.12853-0.24155-0.12853-0.38364 0-0.11367 0.04284-0.22733 0.12853-0.341 0.11425-0.11367 0.24278-0.17051 0.38559-0.17051 0.11425 0 0.2285 0.0568 0.34275 0.17051 0.11425 0.11367 0.17138 0.22733 0.17138 0.341 0 0.14209-0.05712 0.26997-0.17138 0.38364-0.11425 0.0853-0.2285 0.12788-0.34275 0.12788zm-1.371 0c-0.14281 0-0.27134-0.0426-0.38559-0.12788-0.08569-0.11367-0.12853-0.24155-0.12853-0.38364 0-0.11367 0.04284-0.22733 0.12853-0.341 0.11425-0.11367 0.24278-0.17051 0.38559-0.17051 0.11425 0 0.2285 0.0568 0.34275 0.17051 0.11425 0.11367 0.17137 0.22733 0.17137 0.341 0 0.14209-0.05712 0.26997-0.17137 0.38364-0.11425 0.0853-0.2285 0.12788-0.34275 0.12788zm-1.371 0c-0.14281 0-0.27134-0.0426-0.38559-0.12788-0.08569-0.11367-0.12853-0.24155-0.12853-0.38364 0-0.11367 0.04284-0.22733 0.12853-0.341 0.11425-0.11367 0.24278-0.17051 0.38559-0.17051 0.11425 0 0.2285 0.0568 0.34275 0.17051 0.11425 0.11367 0.17137 0.22733 0.17137 0.341 0 0.14209-0.05712 0.26997-0.17137 0.38364-0.11425 0.0853-0.2285 0.12788-0.34275 0.12788zm-1.371 0c-0.14281 0-0.27134-0.0426-0.38559-0.12788-0.08569-0.11367-0.12853-0.24155-0.12853-0.38364 0-0.11367 0.04284-0.22733 0.12853-0.341 0.11425-0.11367 0.24278-0.17051 0.38559-0.17051 0.11425 0 0.2285 0.0568 0.34275 0.17051 0.11425 0.11367 0.17137 0.22733 0.17137 0.341 0 0.14209-0.05712 0.26997-0.17137 0.38364-0.11425 0.0853-0.2285 0.12788-0.34275 0.12788zm-1.371 0c-0.14281 0-0.27134-0.0426-0.38559-0.12788-0.08569-0.11367-0.12853-0.24155-0.12853-0.38364 0-0.11367 0.04284-0.22733 0.12853-0.341 0.11425-0.11367 0.24278-0.17051 0.38559-0.17051 0.11425 0 0.2285 0.0568 0.34275 0.17051 0.11425 0.11367 0.17137 0.22733 0.17137 0.341 0 0.14209-0.05712 0.26997-0.17137 0.38364-0.11425 0.0853-0.2285 0.12788-0.34275 0.12788zm-1.371 0c-0.14281 0-0.27134-0.0426-0.38559-0.12788-0.08569-0.11367-0.12853-0.24155-0.12853-0.38364 0-0.11367 0.04284-0.22733 0.12853-0.341 0.11425-0.11367 0.24278-0.17051 0.38559-0.17051 0.11425 0 0.2285 0.0568 0.34275 0.17051 0.11425 0.11367 0.17138 0.22733 0.17138 0.341 0 0.14209-0.05712 0.26997-0.17138 0.38364-0.11425 0.0853-0.2285 0.12788-0.34275 0.12788zm-1.371 0c-0.14281 0-0.27134-0.0426-0.38559-0.12788-0.08569-0.11367-0.12853-0.24155-0.12853-0.38364 0-0.11367 0.04284-0.22733 0.12853-0.341 0.11425-0.11367 0.24278-0.17051 0.38559-0.17051 0.11425 0 0.2285 0.0568 0.34275 0.17051 0.11425 0.11367 0.17137 0.22733 0.17137 0.341 0 0.14209-0.05712 0.26997-0.17137 0.38364-0.11425 0.0853-0.2285 0.12788-0.34275 0.12788zm13.71 1.364c-0.14281 0-0.27134-0.0426-0.38559-0.12788-0.08569-0.11367-0.12853-0.24154-0.12853-0.38363 0-0.11367 0.04284-0.22734 0.12853-0.34101 0.11425-0.11367 0.24278-0.1705 0.38559-0.1705 0.11425 0 0.2285 0.0568 0.34275 0.1705 0.11425 0.11367 0.17137 0.22734 0.17137 0.34101 0 0.14209-0.05712 0.26996-0.17137 0.38363-0.11425 0.0853-0.2285 0.12788-0.34275 0.12788zm-1.371 0c-0.14281 0-0.27134-0.0426-0.38559-0.12788-0.08569-0.11367-0.12853-0.24154-0.12853-0.38363 0-0.11367 0.04284-0.22734 0.12853-0.34101 0.11425-0.11367 0.24278-0.1705 0.38559-0.1705 0.11425 0 0.2285 0.0568 0.34275 0.1705 0.11425 0.11367 0.17137 0.22734 0.17137 0.34101 0 0.14209-0.05712 0.26996-0.17137 0.38363-0.11425 0.0853-0.2285 0.12788-0.34275 0.12788zm-1.371 0c-0.14281 0-0.27134-0.0426-0.38559-0.12788-0.08569-0.11367-0.12853-0.24154-0.12853-0.38363 0-0.11367 0.04284-0.22734 0.12853-0.34101 0.11425-0.11367 0.24278-0.1705 0.38559-0.1705 0.11425 0 0.2285 0.0568 0.34275 0.1705 0.11425 0.11367 0.17138 0.22734 0.17138 0.34101 0 0.14209-0.05713 0.26996-0.17138 0.38363-0.11425 0.0853-0.2285 0.12788-0.34275 0.12788zm-1.371 0c-0.14281 0-0.27134-0.0426-0.38559-0.12788-0.08569-0.11367-0.12853-0.24154-0.12853-0.38363 0-0.11367 0.04284-0.22734 0.12853-0.34101 0.11425-0.11367 0.24278-0.1705 0.38559-0.1705 0.11425 0 0.2285 0.0568 0.34275 0.1705 0.11425 0.11367 0.17137 0.22734 0.17137 0.34101 0 0.14209-0.05712 0.26996-0.17137 0.38363-0.11425 0.0853-0.2285 0.12788-0.34275 0.12788zm-1.371 0c-0.14281 0-0.27134-0.0426-0.38559-0.12788-0.08569-0.11367-0.12853-0.24154-0.12853-0.38363 0-0.11367 0.04284-0.22734 0.12853-0.34101 0.11425-0.11367 0.24278-0.1705 0.38559-0.1705 0.11425 0 0.2285 0.0568 0.34275 0.1705 0.11425 0.11367 0.17138 0.22734 0.17138 0.34101 0 0.14209-0.05712 0.26996-0.17138 0.38363-0.11425 0.0853-0.2285 0.12788-0.34275 0.12788zm-1.371 0c-0.14281 0-0.27134-0.0426-0.38559-0.12788-0.08569-0.11367-0.12853-0.24154-0.12853-0.38363 0-0.11367 0.04284-0.22734 0.12853-0.34101 0.11425-0.11367 0.24278-0.1705 0.38559-0.1705 0.11425 0 0.2285 0.0568 0.34275 0.1705 0.11425 0.11367 0.17137 0.22734 0.17137 0.34101 0 0.14209-0.05712 0.26996-0.17137 0.38363-0.11425 0.0853-0.2285 0.12788-0.34275 0.12788zm-1.371 0c-0.14281 0-0.27134-0.0426-0.38559-0.12788-0.08569-0.11367-0.12853-0.24154-0.12853-0.38363 0-0.11367 0.04284-0.22734 0.12853-0.34101 0.11425-0.11367 0.24278-0.1705 0.38559-0.1705 0.11425 0 0.2285 0.0568 0.34275 0.1705 0.11425 0.11367 0.17137 0.22734 0.17137 0.34101 0 0.14209-0.05712 0.26996-0.17137 0.38363-0.11425 0.0853-0.2285 0.12788-0.34275 0.12788zm-1.371 0c-0.14281 0-0.27134-0.0426-0.38559-0.12788-0.08569-0.11367-0.12853-0.24154-0.12853-0.38363 0-0.11367 0.04284-0.22734 0.12853-0.34101 0.11425-0.11367 0.24278-0.1705 0.38559-0.1705 0.11425 0 0.2285 0.0568 0.34275 0.1705 0.11425 0.11367 0.17137 0.22734 0.17137 0.34101 0 0.14209-0.05712 0.26996-0.17137 0.38363-0.11425 0.0853-0.2285 0.12788-0.34275 0.12788zm-1.371 0c-0.14281 0-0.27134-0.0426-0.38559-0.12788-0.08569-0.11367-0.12853-0.24154-0.12853-0.38363 0-0.11367 0.04284-0.22734 0.12853-0.34101 0.11425-0.11367 0.24278-0.1705 0.38559-0.1705 0.11425 0 0.2285 0.0568 0.34275 0.1705 0.11425 0.11367 0.17137 0.22734 0.17137 0.34101 0 0.14209-0.05712 0.26996-0.17137 0.38363-0.11425 0.0853-0.2285 0.12788-0.34275 0.12788zm-1.371 0c-0.14281 0-0.27134-0.0426-0.38559-0.12788-0.08569-0.11367-0.12853-0.24154-0.12853-0.38363 0-0.11367 0.04284-0.22734 0.12853-0.34101 0.11425-0.11367 0.24278-0.1705 0.38559-0.1705 0.11425 0 0.2285 0.0568 0.34275 0.1705 0.11425 0.11367 0.17138 0.22734 0.17138 0.34101 0 0.14209-0.05712 0.26996-0.17138 0.38363-0.11425 0.0853-0.2285 0.12788-0.34275 0.12788zm-1.371 0c-0.14281 0-0.27134-0.0426-0.38559-0.12788-0.08569-0.11367-0.12853-0.24154-0.12853-0.38363 0-0.11367 0.04284-0.22734 0.12853-0.34101 0.11425-0.11367 0.24278-0.1705 0.38559-0.1705 0.11425 0 0.2285 0.0568 0.34275 0.1705 0.11425 0.11367 0.17137 0.22734 0.17137 0.34101 0 0.14209-0.05712 0.26996-0.17137 0.38363-0.11425 0.0853-0.2285 0.12788-0.34275 0.12788zm2.742 1.364c-0.14281 0-0.27134-0.0426-0.38559-0.12788-0.08569-0.11367-0.12853-0.24154-0.12853-0.38363 0-0.11367 0.04284-0.22734 0.12853-0.34101 0.11425-0.11367 0.24278-0.17051 0.38559-0.17051 0.11425 0 0.2285 0.0568 0.34275 0.17051 0.11425 0.11367 0.17137 0.22734 0.17137 0.34101 0 0.14209-0.05712 0.26996-0.17137 0.38363-0.11425 0.0853-0.2285 0.12788-0.34275 0.12788zm-1.371 0c-0.14281 0-0.27134-0.0426-0.38559-0.12788-0.08569-0.11367-0.12853-0.24154-0.12853-0.38363 0-0.11367 0.04284-0.22734 0.12853-0.34101 0.11425-0.11367 0.24278-0.17051 0.38559-0.17051 0.11425 0 0.2285 0.0568 0.34275 0.17051 0.11425 0.11367 0.17138 0.22734 0.17138 0.34101 0 0.14209-0.05712 0.26996-0.17138 0.38363-0.11425 0.0853-0.2285 0.12788-0.34275 0.12788zm-1.371 0c-0.14281 0-0.27134-0.0426-0.38559-0.12788-0.08569-0.11367-0.12853-0.24154-0.12853-0.38363 0-0.11367 0.04284-0.22734 0.12853-0.34101 0.11425-0.11367 0.24278-0.17051 0.38559-0.17051 0.11425 0 0.2285 0.0568 0.34275 0.17051 0.11425 0.11367 0.17137 0.22734 0.17137 0.34101 0 0.14209-0.05712 0.26996-0.17137 0.38363-0.11425 0.0853-0.2285 0.12788-0.34275 0.12788zm2.742 1.364c-0.14281 0-0.27134-0.0426-0.38559-0.12788-0.08569-0.11367-0.12853-0.24155-0.12853-0.38364 0-0.11367 0.04284-0.22733 0.12853-0.341 0.11425-0.11367 0.24278-0.17051 0.38559-0.17051 0.11425 0 0.2285 0.0568 0.34275 0.17051 0.11425 0.11367 0.17137 0.22733 0.17137 0.341 0 0.14209-0.05712 0.26997-0.17137 0.38364-0.11425 0.0853-0.2285 0.12788-0.34275 0.12788zm-1.371 0c-0.14281 0-0.27134-0.0426-0.38559-0.12788-0.08569-0.11367-0.12853-0.24155-0.12853-0.38364 0-0.11367 0.04284-0.22733 0.12853-0.341 0.11425-0.11367 0.24278-0.17051 0.38559-0.17051 0.11425 0 0.2285 0.0568 0.34275 0.17051 0.11425 0.11367 0.17138 0.22733 0.17138 0.341 0 0.14209-0.05712 0.26997-0.17138 0.38364-0.11425 0.0853-0.2285 0.12788-0.34275 0.12788zm-1.371 0c-0.14281 0-0.27134-0.0426-0.38559-0.12788-0.08569-0.11367-0.12853-0.24155-0.12853-0.38364 0-0.11367 0.04284-0.22733 0.12853-0.341 0.11425-0.11367 0.24278-0.17051 0.38559-0.17051 0.11425 0 0.2285 0.0568 0.34275 0.17051 0.11425 0.11367 0.17137 0.22733 0.17137 0.341 0 0.14209-0.05712 0.26997-0.17137 0.38364-0.11425 0.0853-0.2285 0.12788-0.34275 0.12788zm2.742 1.364c-0.14281 0-0.27134-0.0426-0.38559-0.12788-0.08569-0.11367-0.12853-0.24154-0.12853-0.38363 0-0.11367 0.04284-0.22734 0.12853-0.34101 0.11425-0.11367 0.24278-0.1705 0.38559-0.1705 0.11425 0 0.2285 0.0568 0.34275 0.1705 0.11425 0.11367 0.17137 0.22734 0.17137 0.34101 0 0.14209-0.05712 0.26996-0.17137 0.38363-0.11425 0.0853-0.2285 0.12788-0.34275 0.12788zm-1.371 0c-0.14281 0-0.27134-0.0426-0.38559-0.12788-0.08569-0.11367-0.12853-0.24154-0.12853-0.38363 0-0.11367 0.04284-0.22734 0.12853-0.34101 0.11425-0.11367 0.24278-0.1705 0.38559-0.1705 0.11425 0 0.2285 0.0568 0.34275 0.1705 0.11425 0.11367 0.17138 0.22734 0.17138 0.34101 0 0.14209-0.05712 0.26996-0.17138 0.38363-0.11425 0.0853-0.2285 0.12788-0.34275 0.12788zm-1.371 0c-0.14281 0-0.27134-0.0426-0.38559-0.12788-0.08569-0.11367-0.12853-0.24154-0.12853-0.38363 0-0.11367 0.04284-0.22734 0.12853-0.34101 0.11425-0.11367 0.24278-0.1705 0.38559-0.1705 0.11425 0 0.2285 0.0568 0.34275 0.1705 0.11425 0.11367 0.17137 0.22734 0.17137 0.34101 0 0.14209-0.05712 0.26996-0.17137 0.38363-0.11425 0.0853-0.2285 0.12788-0.34275 0.12788zm2.742 1.364c-0.14281 0-0.27134-0.0426-0.38559-0.12788-0.08569-0.11367-0.12853-0.24154-0.12853-0.38363 0-0.11367 0.04284-0.22734 0.12853-0.34101 0.11425-0.11367 0.24278-0.17051 0.38559-0.17051 0.11425 0 0.2285 0.0568 0.34275 0.17051 0.11425 0.11367 0.17137 0.22734 0.17137 0.34101 0 0.14209-0.05712 0.26996-0.17137 0.38363-0.11425 0.0853-0.2285 0.12788-0.34275 0.12788zm-1.371 0c-0.14281 0-0.27134-0.0426-0.38559-0.12788-0.08569-0.11367-0.12853-0.24154-0.12853-0.38363 0-0.11367 0.04284-0.22734 0.12853-0.34101 0.11425-0.11367 0.24278-0.17051 0.38559-0.17051 0.11425 0 0.2285 0.0568 0.34275 0.17051 0.11425 0.11367 0.17138 0.22734 0.17138 0.34101 0 0.14209-0.05712 0.26996-0.17138 0.38363-0.11425 0.0853-0.2285 0.12788-0.34275 0.12788zm-1.371 0c-0.14281 0-0.27134-0.0426-0.38559-0.12788-0.08569-0.11367-0.12853-0.24154-0.12853-0.38363 0-0.11367 0.04284-0.22734 0.12853-0.34101 0.11425-0.11367 0.24278-0.17051 0.38559-0.17051 0.11425 0 0.2285 0.0568 0.34275 0.17051 0.11425 0.11367 0.17137 0.22734 0.17137 0.34101 0 0.14209-0.05712 0.26996-0.17137 0.38363-0.11425 0.0853-0.2285 0.12788-0.34275 0.12788zm2.742 1.364c-0.14281 0-0.27134-0.0426-0.38559-0.12788-0.08569-0.11367-0.12853-0.24155-0.12853-0.38364 0-0.11367 0.04284-0.22734 0.12853-0.34101 0.11425-0.11367 0.24278-0.1705 0.38559-0.1705 0.11425 0 0.2285 0.0568 0.34275 0.1705 0.11425 0.11367 0.17137 0.22734 0.17137 0.34101 0 0.14209-0.05712 0.26997-0.17137 0.38364-0.11425 0.0853-0.2285 0.12788-0.34275 0.12788zm-1.371 0c-0.14281 0-0.27134-0.0426-0.38559-0.12788-0.08569-0.11367-0.12853-0.24155-0.12853-0.38364 0-0.11367 0.04284-0.22734 0.12853-0.34101 0.11425-0.11367 0.24278-0.1705 0.38559-0.1705 0.11425 0 0.2285 0.0568 0.34275 0.1705 0.11425 0.11367 0.17138 0.22734 0.17138 0.34101 0 0.14209-0.05712 0.26997-0.17138 0.38364-0.11425 0.0853-0.2285 0.12788-0.34275 0.12788zm-1.371 0c-0.14281 0-0.27134-0.0426-0.38559-0.12788-0.08569-0.11367-0.12853-0.24155-0.12853-0.38364 0-0.11367 0.04284-0.22734 0.12853-0.34101 0.11425-0.11367 0.24278-0.1705 0.38559-0.1705 0.11425 0 0.2285 0.0568 0.34275 0.1705 0.11425 0.11367 0.17137 0.22734 0.17137 0.34101 0 0.14209-0.05712 0.26997-0.17137 0.38364-0.11425 0.0853-0.2285 0.12788-0.34275 0.12788z" fill="#009dda" style="font-feature-settings:normal;font-variant-caps:normal;font-variant-ligatures:normal;font-variant-numeric:normal"/>
<g transform="matrix(.55078 0 0 .55078 9.477 85.923)">
<g transform="translate(0 -1.5312)" fill="none" stroke="#009dda" stroke-width=".47808px">
<path d="m50.084 61.556 7.0281 0.06496 6.1031-0.36184 10.117 1.2389 7.5536-0.72861-1.8366 8.9511-12.029-0.02497-6.4975-0.32354 0.48536 7.0389 5.1202 0.42478 7.387 0.46033 0.35252 7.9581-4.4112 0.98287-9.051-0.31067-1.6268 8.4988 3.061 8.0831-12.439 0.18807 0.17561-12.133 0.46829-4.5295-0.70244-7.7648 1.6353-5.7826-1.1276-12.145m6.969 0.58943 3.801 8.5019 2.5291-8.6946 6.5229 8.6521 3.5942-7.5184 5.7833 7.8487"/>
<path d="m60.581 70.372-6.9462-3.1067-3.5313-5.5023m3.375 5.346 3.2534-5.3399 12.971 8.7383"/>
<path d="m53.479 67.109-2.313 6.1721 9.0696-2.6882-3.4993 6.7534-5.5703-4.0652"/>
<path d="m73.515 78.296-4.0366 8.5763-3.461-8.7052-5.7292 8.9209 0.71951-9.6771-4.2719-0.06452-7.0382 2.0389 4.4906 3.4955 6.0897 3.9549-5.8439 6.5829-4.1972-6.4174 10.051 0.08682"/>
<path d="m60.278 86.835-3.5421-9.4892-2.5476 5.5344-3.9514 4.1205"/>
<path d="m49.577 91.563 4.7613 1.7003 4.1676 2.2003-8.9289 5.482 2.7708 2.4774 1.5024-4.6343-4.2731-4.5427"/>
<path d="m61.84 103.51-7.9902-4.7189 0.48819-5.5254"/>
</g>
</g>
</g>
</svg>
